<mxfile host="app.diagrams.net" modified="2023-10-16T01:46:35.000Z" agent="Mozilla/5.0 (Windows NT 10.0; Win64; x64; rv:109.0) Gecko/20100101 Firefox/118.0" etag="p-42AWGGVx6PYMLBm550" version="22.0.4" type="github">
  <diagram name="第 1 页" id="Aw3Pf0h6sJnKODZOu8LF">
    <mxGraphModel dx="1434" dy="746" grid="1" gridSize="10" guides="1" tooltips="1" connect="1" arrows="1" fold="1" page="1" pageScale="1" pageWidth="827" pageHeight="1169" math="0" shadow="0">
      <root>
        <mxCell id="0" />
        <mxCell id="1" parent="0" />
        <mxCell id="IFvYXQbIsYziRsAE9J6--2" value="每天凌晨0-1点进行逾期还款单核算" style="rounded=0;whiteSpace=wrap;html=1;fillColor=#ffe6cc;strokeColor=#d79b00;" parent="1" vertex="1">
          <mxGeometry x="100" y="183" width="120" height="60" as="geometry" />
        </mxCell>
        <mxCell id="IFvYXQbIsYziRsAE9J6--5" style="edgeStyle=orthogonalEdgeStyle;rounded=0;orthogonalLoop=1;jettySize=auto;html=1;exitX=1;exitY=0.5;exitDx=0;exitDy=0;" parent="1" source="IFvYXQbIsYziRsAE9J6--3" edge="1">
          <mxGeometry relative="1" as="geometry">
            <mxPoint x="270" y="353" as="targetPoint" />
          </mxGeometry>
        </mxCell>
        <mxCell id="IFvYXQbIsYziRsAE9J6--3" value="根据当前日期(now)，查询所有还款逾期的还款单" style="rounded=0;whiteSpace=wrap;html=1;fillColor=#d5e8d4;strokeColor=#82b366;" parent="1" vertex="1">
          <mxGeometry x="100" y="323" width="120" height="60" as="geometry" />
        </mxCell>
        <mxCell id="IFvYXQbIsYziRsAE9J6--4" value="" style="shape=flexArrow;endArrow=classic;html=1;rounded=0;" parent="1" source="IFvYXQbIsYziRsAE9J6--2" edge="1">
          <mxGeometry width="50" height="50" relative="1" as="geometry">
            <mxPoint x="160" y="293" as="sourcePoint" />
            <mxPoint x="160" y="313.71067811865476" as="targetPoint" />
          </mxGeometry>
        </mxCell>
        <mxCell id="IFvYXQbIsYziRsAE9J6--8" style="edgeStyle=orthogonalEdgeStyle;rounded=0;orthogonalLoop=1;jettySize=auto;html=1;" parent="1" source="IFvYXQbIsYziRsAE9J6--7" edge="1">
          <mxGeometry relative="1" as="geometry">
            <mxPoint x="400" y="353" as="targetPoint" />
          </mxGeometry>
        </mxCell>
        <mxCell id="IFvYXQbIsYziRsAE9J6--7" value="&lt;div&gt;查询产品的宽限天数&lt;/div&gt;&lt;div&gt;graceDay&lt;br&gt;&lt;/div&gt;" style="whiteSpace=wrap;html=1;aspect=fixed;" parent="1" vertex="1">
          <mxGeometry x="270" y="313" width="80" height="80" as="geometry" />
        </mxCell>
        <mxCell id="IFvYXQbIsYziRsAE9J6--11" style="edgeStyle=orthogonalEdgeStyle;rounded=0;orthogonalLoop=1;jettySize=auto;html=1;" parent="1" source="IFvYXQbIsYziRsAE9J6--9" edge="1">
          <mxGeometry relative="1" as="geometry">
            <mxPoint x="630" y="353" as="targetPoint" />
          </mxGeometry>
        </mxCell>
        <mxCell id="IFvYXQbIsYziRsAE9J6--12" value="否" style="edgeLabel;html=1;align=center;verticalAlign=middle;resizable=0;points=[];" parent="IFvYXQbIsYziRsAE9J6--11" vertex="1" connectable="0">
          <mxGeometry x="-0.1802" y="-3" relative="1" as="geometry">
            <mxPoint as="offset" />
          </mxGeometry>
        </mxCell>
        <mxCell id="Zr8373-K24QdLeZp-8y8-16" style="edgeStyle=orthogonalEdgeStyle;rounded=0;orthogonalLoop=1;jettySize=auto;html=1;exitX=0.5;exitY=1;exitDx=0;exitDy=0;fontFamily=Helvetica;fontSize=12;fontColor=default;" parent="1" source="IFvYXQbIsYziRsAE9J6--9" edge="1">
          <mxGeometry relative="1" as="geometry">
            <mxPoint x="475" y="483" as="targetPoint" />
          </mxGeometry>
        </mxCell>
        <mxCell id="Zr8373-K24QdLeZp-8y8-17" value="是" style="edgeLabel;html=1;align=center;verticalAlign=middle;resizable=0;points=[];fontSize=12;fontFamily=Helvetica;fontColor=default;" parent="Zr8373-K24QdLeZp-8y8-16" vertex="1" connectable="0">
          <mxGeometry x="-0.084" y="-2" relative="1" as="geometry">
            <mxPoint as="offset" />
          </mxGeometry>
        </mxCell>
        <mxCell id="IFvYXQbIsYziRsAE9J6--9" value="当前日期 + 宽限天数 &amp;gt; 应还款日期" style="rhombus;whiteSpace=wrap;html=1;fillColor=#f8cecc;strokeColor=#b85450;" parent="1" vertex="1">
          <mxGeometry x="400" y="288" width="150" height="130" as="geometry" />
        </mxCell>
        <mxCell id="IFvYXQbIsYziRsAE9J6--13" value="虽然逾期，但在宽限期内，不做处理" style="rounded=0;whiteSpace=wrap;html=1;fillColor=#60a917;fontColor=#ffffff;strokeColor=#2D7600;" parent="1" vertex="1">
          <mxGeometry x="630" y="323" width="100" height="60" as="geometry" />
        </mxCell>
        <mxCell id="Zr8373-K24QdLeZp-8y8-1" style="edgeStyle=orthogonalEdgeStyle;rounded=0;orthogonalLoop=1;jettySize=auto;html=1;exitX=1;exitY=0.5;exitDx=0;exitDy=0;" parent="1" source="IFvYXQbIsYziRsAE9J6--17" edge="1">
          <mxGeometry relative="1" as="geometry">
            <mxPoint x="660" y="643" as="targetPoint" />
          </mxGeometry>
        </mxCell>
        <mxCell id="Zr8373-K24QdLeZp-8y8-2" value="是" style="edgeLabel;html=1;align=center;verticalAlign=middle;resizable=0;points=[];" parent="Zr8373-K24QdLeZp-8y8-1" vertex="1" connectable="0">
          <mxGeometry x="-0.0548" y="-3" relative="1" as="geometry">
            <mxPoint as="offset" />
          </mxGeometry>
        </mxCell>
        <mxCell id="Zr8373-K24QdLeZp-8y8-4" style="edgeStyle=orthogonalEdgeStyle;rounded=0;orthogonalLoop=1;jettySize=auto;html=1;" parent="1" source="IFvYXQbIsYziRsAE9J6--17" edge="1">
          <mxGeometry relative="1" as="geometry">
            <mxPoint x="475" y="743" as="targetPoint" />
          </mxGeometry>
        </mxCell>
        <mxCell id="Zr8373-K24QdLeZp-8y8-5" value="否" style="edgeLabel;html=1;align=center;verticalAlign=middle;resizable=0;points=[];" parent="Zr8373-K24QdLeZp-8y8-4" vertex="1" connectable="0">
          <mxGeometry x="0.0729" y="3" relative="1" as="geometry">
            <mxPoint as="offset" />
          </mxGeometry>
        </mxCell>
        <mxCell id="IFvYXQbIsYziRsAE9J6--17" value="是否超过下一期的应还款日期" style="rhombus;whiteSpace=wrap;html=1;fillColor=#f8cecc;strokeColor=#b85450;" parent="1" vertex="1">
          <mxGeometry x="361.5" y="603" width="225" height="80" as="geometry" />
        </mxCell>
        <mxCell id="Zr8373-K24QdLeZp-8y8-3" value="&lt;div&gt;1.计算逾期金额&lt;/div&gt;&lt;div&gt;2.修改订单状态为已转结&lt;/div&gt;&lt;div&gt;3.将本期的未还金额转结到下一期&lt;br&gt;&lt;/div&gt;" style="rounded=0;whiteSpace=wrap;html=1;align=left;fillColor=#60a917;fontColor=#ffffff;strokeColor=#2D7600;" parent="1" vertex="1">
          <mxGeometry x="660" y="613" width="190" height="60" as="geometry" />
        </mxCell>
        <mxCell id="Zr8373-K24QdLeZp-8y8-6" value="&lt;div align=&quot;left&quot;&gt;1.还款单状态变为逾期&lt;/div&gt;&lt;div align=&quot;left&quot;&gt;2.计算逾期金额&lt;br&gt;&lt;/div&gt;" style="rounded=0;whiteSpace=wrap;html=1;align=left;fillColor=#60a917;fontColor=#ffffff;strokeColor=#2D7600;" parent="1" vertex="1">
          <mxGeometry x="414" y="753" width="120" height="60" as="geometry" />
        </mxCell>
        <mxCell id="Zr8373-K24QdLeZp-8y8-12" value="&lt;div&gt;每月还款本息&amp;nbsp;&amp;nbsp;&amp;nbsp;&amp;nbsp; = &lt;span style=&quot;&quot;&gt;&lt;span style=&quot;&quot;&gt;&amp;nbsp;&amp;nbsp;&amp;nbsp;&amp;nbsp;&lt;/span&gt;&lt;/span&gt;[贷款金额*年利率/12*(1+年利率/12）^贷款期数]/[（1+年利率/12）^贷款期数-1]&lt;span style=&quot;&quot; data-eleid=&quot;4&quot; class=&quot;text-only&quot;&gt;&lt;br&gt;&lt;/span&gt;&lt;/div&gt;&lt;div&gt;&lt;span style=&quot;&quot; data-eleid=&quot;7&quot; class=&quot;text-only&quot;&gt;每月利息&amp;nbsp;&amp;nbsp;&amp;nbsp;&amp;nbsp;&amp;nbsp;&amp;nbsp;&amp;nbsp;&amp;nbsp;&lt;span style=&quot;&quot;&gt;&lt;span style=&quot;&quot;&gt;&amp;nbsp;&amp;nbsp;&amp;nbsp;&amp;nbsp;&lt;/span&gt;&lt;/span&gt; = &lt;span style=&quot;&quot;&gt;&lt;span style=&quot;&quot;&gt;&amp;nbsp;&amp;nbsp;&amp;nbsp;&amp;nbsp;&lt;/span&gt;&lt;/span&gt;剩余本金*年利率/12&lt;/span&gt;&lt;span style=&quot;&quot; data-eleid=&quot;6&quot; class=&quot;text-only&quot;&gt;&lt;/span&gt;&lt;span style=&quot;&quot; data-eleid=&quot;9&quot; class=&quot;text-only&quot;&gt;&lt;br&gt;&lt;/span&gt;&lt;/div&gt;&lt;div&gt;&lt;span style=&quot;&quot; data-eleid=&quot;9&quot; class=&quot;text-only&quot;&gt;每月应还本金&lt;span style=&quot;&quot;&gt;&lt;span style=&quot;&quot;&gt;&amp;nbsp;&amp;nbsp;&amp;nbsp;&amp;nbsp;&lt;/span&gt;&lt;/span&gt; = &lt;span style=&quot;&quot;&gt;&lt;span style=&quot;&quot;&gt;&amp;nbsp;&amp;nbsp;&amp;nbsp;&amp;nbsp;&lt;/span&gt;&lt;/span&gt;每月还款本息-每月利息&lt;/span&gt;&lt;/div&gt;" style="shape=note;whiteSpace=wrap;html=1;backgroundOutline=1;darkOpacity=0.05;rounded=0;strokeColor=#6c8ebf;fontFamily=Helvetica;fontSize=12;fillColor=#dae8fc;align=left;" parent="1" vertex="1">
          <mxGeometry x="380" y="163" width="610" height="100" as="geometry" />
        </mxCell>
        <mxCell id="Zr8373-K24QdLeZp-8y8-14" value="" style="shape=flexArrow;endArrow=classic;html=1;rounded=0;fontFamily=Helvetica;fontSize=12;fontColor=default;" parent="1" edge="1">
          <mxGeometry width="50" height="50" relative="1" as="geometry">
            <mxPoint x="400" y="782.5" as="sourcePoint" />
            <mxPoint x="340" y="783" as="targetPoint" />
          </mxGeometry>
        </mxCell>
        <mxCell id="Zr8373-K24QdLeZp-8y8-15" value="&lt;div&gt;逾期金额 = 逾期天数 * 应还金额 * 逾期利率&lt;/div&gt;&lt;div&gt;应还金额 = 应还本金加利息 + 逾期金额 + 转结金额 - 已还金额 &lt;br&gt;&lt;/div&gt;" style="shape=note;whiteSpace=wrap;html=1;backgroundOutline=1;darkOpacity=0.05;rounded=0;strokeColor=#6c8ebf;fontFamily=Helvetica;fontSize=12;fillColor=#dae8fc;" parent="1" vertex="1">
          <mxGeometry x="90" y="723" width="240" height="100" as="geometry" />
        </mxCell>
        <mxCell id="Zr8373-K24QdLeZp-8y8-19" style="edgeStyle=orthogonalEdgeStyle;rounded=0;orthogonalLoop=1;jettySize=auto;html=1;fontFamily=Helvetica;fontSize=12;fontColor=default;" parent="1" source="Zr8373-K24QdLeZp-8y8-18" edge="1">
          <mxGeometry relative="1" as="geometry">
            <mxPoint x="475" y="603" as="targetPoint" />
          </mxGeometry>
        </mxCell>
        <mxCell id="Zr8373-K24QdLeZp-8y8-20" value="否" style="edgeLabel;html=1;align=center;verticalAlign=middle;resizable=0;points=[];fontSize=12;fontFamily=Helvetica;fontColor=default;" parent="Zr8373-K24QdLeZp-8y8-19" vertex="1" connectable="0">
          <mxGeometry x="-0.1054" y="-1" relative="1" as="geometry">
            <mxPoint as="offset" />
          </mxGeometry>
        </mxCell>
        <mxCell id="Zr8373-K24QdLeZp-8y8-21" style="edgeStyle=orthogonalEdgeStyle;rounded=0;orthogonalLoop=1;jettySize=auto;html=1;exitX=1;exitY=0.5;exitDx=0;exitDy=0;fontFamily=Helvetica;fontSize=12;fontColor=default;" parent="1" source="Zr8373-K24QdLeZp-8y8-18" edge="1">
          <mxGeometry relative="1" as="geometry">
            <mxPoint x="620" y="513" as="targetPoint" />
          </mxGeometry>
        </mxCell>
        <mxCell id="Zr8373-K24QdLeZp-8y8-22" value="是" style="edgeLabel;html=1;align=center;verticalAlign=middle;resizable=0;points=[];fontSize=12;fontFamily=Helvetica;fontColor=default;" parent="Zr8373-K24QdLeZp-8y8-21" vertex="1" connectable="0">
          <mxGeometry x="0.1905" relative="1" as="geometry">
            <mxPoint as="offset" />
          </mxGeometry>
        </mxCell>
        <mxCell id="Zr8373-K24QdLeZp-8y8-18" value="是否为最后一期" style="rhombus;whiteSpace=wrap;html=1;fillColor=#f8cecc;strokeColor=#b85450;" parent="1" vertex="1">
          <mxGeometry x="386.25" y="483" width="177.5" height="60" as="geometry" />
        </mxCell>
        <mxCell id="Zr8373-K24QdLeZp-8y8-23" value="直接核算逾期金额，修改还款单状态为已逾期" style="rounded=0;whiteSpace=wrap;html=1;strokeColor=#2D7600;fontFamily=Helvetica;fontSize=12;fontColor=#ffffff;fillColor=#60a917;" parent="1" vertex="1">
          <mxGeometry x="620" y="483" width="120" height="60" as="geometry" />
        </mxCell>
        <mxCell id="Zr8373-K24QdLeZp-8y8-24" value="" style="shape=flexArrow;endArrow=classic;html=1;rounded=0;fontFamily=Helvetica;fontSize=12;fontColor=default;" parent="1" edge="1">
          <mxGeometry width="50" height="50" relative="1" as="geometry">
            <mxPoint x="860" y="642.5" as="sourcePoint" />
            <mxPoint x="930" y="643" as="targetPoint" />
          </mxGeometry>
        </mxCell>
        <mxCell id="Zr8373-K24QdLeZp-8y8-25" value="&lt;div&gt;未还金额 = 应还金额 - 已还金额 &lt;br&gt;&lt;/div&gt;" style="shape=note;whiteSpace=wrap;html=1;backgroundOutline=1;darkOpacity=0.05;rounded=0;strokeColor=#6c8ebf;fontFamily=Helvetica;fontSize=12;fillColor=#dae8fc;align=left;" parent="1" vertex="1">
          <mxGeometry x="935" y="608" width="205" height="70" as="geometry" />
        </mxCell>
        <mxCell id="Zr8373-K24QdLeZp-8y8-26" value="" style="shape=link;html=1;rounded=0;fontFamily=Helvetica;fontSize=12;fontColor=default;width=40;" parent="1" edge="1">
          <mxGeometry width="100" relative="1" as="geometry">
            <mxPoint x="30" y="890" as="sourcePoint" />
            <mxPoint x="1354" y="890" as="targetPoint" />
          </mxGeometry>
        </mxCell>
        <mxCell id="Zr8373-K24QdLeZp-8y8-27" value="" style="shape=link;html=1;rounded=0;fontFamily=Helvetica;fontSize=12;fontColor=default;width=36;" parent="1" edge="1">
          <mxGeometry width="100" relative="1" as="geometry">
            <mxPoint x="70" y="60" as="sourcePoint" />
            <mxPoint x="1452" y="60" as="targetPoint" />
          </mxGeometry>
        </mxCell>
        <mxCell id="Zr8373-K24QdLeZp-8y8-28" value="&lt;font color=&quot;#ff6666&quot; style=&quot;font-size: 19px;&quot;&gt;&lt;b style=&quot;font-size: 19px;&quot;&gt;&lt;font style=&quot;font-size: 19px;&quot;&gt;逾期金额核算&lt;/font&gt;&lt;/b&gt;&lt;/font&gt;" style="text;html=1;align=center;verticalAlign=middle;resizable=0;points=[];autosize=1;strokeColor=none;fillColor=none;fontSize=19;fontFamily=Helvetica;fontColor=default;" parent="1" vertex="1">
          <mxGeometry x="53" y="85" width="140" height="40" as="geometry" />
        </mxCell>
        <mxCell id="Zr8373-K24QdLeZp-8y8-31" value="&lt;font color=&quot;#ff6666&quot;&gt;&lt;b&gt;返还授信额度&lt;/b&gt;&lt;/font&gt;" style="text;html=1;align=center;verticalAlign=middle;resizable=0;points=[];autosize=1;strokeColor=none;fillColor=none;fontSize=19;fontFamily=Helvetica;fontColor=default;" parent="1" vertex="1">
          <mxGeometry x="20" y="920" width="140" height="40" as="geometry" />
        </mxCell>
        <mxCell id="Zr8373-K24QdLeZp-8y8-32" value="每日凌晨0-1点进行授信额度返还" style="rounded=0;whiteSpace=wrap;html=1;strokeColor=#d79b00;fontFamily=Helvetica;fontSize=12;fillColor=#ffe6cc;" parent="1" vertex="1">
          <mxGeometry x="90" y="990" width="120" height="60" as="geometry" />
        </mxCell>
        <mxCell id="Zr8373-K24QdLeZp-8y8-46" value="" style="shape=flexArrow;endArrow=classic;html=1;rounded=0;" parent="1" edge="1">
          <mxGeometry width="50" height="50" relative="1" as="geometry">
            <mxPoint x="140" y="1060" as="sourcePoint" />
            <mxPoint x="140" y="1130.7106781186549" as="targetPoint" />
          </mxGeometry>
        </mxCell>
        <mxCell id="Zr8373-K24QdLeZp-8y8-48" style="edgeStyle=orthogonalEdgeStyle;rounded=0;orthogonalLoop=1;jettySize=auto;html=1;exitX=1;exitY=0.5;exitDx=0;exitDy=0;fontFamily=Helvetica;fontSize=12;fontColor=default;" parent="1" source="Zr8373-K24QdLeZp-8y8-47" edge="1">
          <mxGeometry relative="1" as="geometry">
            <mxPoint x="260" y="1170" as="targetPoint" />
          </mxGeometry>
        </mxCell>
        <mxCell id="Zr8373-K24QdLeZp-8y8-47" value="查询所有已结清的还款单" style="rounded=0;whiteSpace=wrap;html=1;fillColor=#d5e8d4;strokeColor=#82b366;" parent="1" vertex="1">
          <mxGeometry x="90" y="1140" width="120" height="60" as="geometry" />
        </mxCell>
        <mxCell id="Zr8373-K24QdLeZp-8y8-75" style="edgeStyle=orthogonalEdgeStyle;rounded=0;orthogonalLoop=1;jettySize=auto;html=1;exitX=1;exitY=0.5;exitDx=0;exitDy=0;fontFamily=Helvetica;fontSize=12;fontColor=default;" parent="1" source="Zr8373-K24QdLeZp-8y8-74" edge="1">
          <mxGeometry relative="1" as="geometry">
            <mxPoint x="470" y="1170" as="targetPoint" />
          </mxGeometry>
        </mxCell>
        <mxCell id="Zr8373-K24QdLeZp-8y8-76" value="是" style="edgeLabel;html=1;align=center;verticalAlign=middle;resizable=0;points=[];fontSize=12;fontFamily=Helvetica;fontColor=default;" parent="Zr8373-K24QdLeZp-8y8-75" vertex="1" connectable="0">
          <mxGeometry x="0.007" relative="1" as="geometry">
            <mxPoint y="1" as="offset" />
          </mxGeometry>
        </mxCell>
        <mxCell id="Zr8373-K24QdLeZp-8y8-157" style="edgeStyle=orthogonalEdgeStyle;rounded=0;orthogonalLoop=1;jettySize=auto;html=1;fontFamily=Helvetica;fontSize=12;fontColor=default;" parent="1" source="Zr8373-K24QdLeZp-8y8-74" edge="1">
          <mxGeometry relative="1" as="geometry">
            <mxPoint x="330" y="1250" as="targetPoint" />
          </mxGeometry>
        </mxCell>
        <mxCell id="Zr8373-K24QdLeZp-8y8-158" value="否" style="edgeLabel;html=1;align=center;verticalAlign=middle;resizable=0;points=[];fontSize=12;fontFamily=Helvetica;fontColor=default;" parent="Zr8373-K24QdLeZp-8y8-157" vertex="1" connectable="0">
          <mxGeometry x="-0.1684" relative="1" as="geometry">
            <mxPoint as="offset" />
          </mxGeometry>
        </mxCell>
        <mxCell id="Zr8373-K24QdLeZp-8y8-74" value="判断是否为第一期" style="rhombus;whiteSpace=wrap;html=1;fillColor=#f8cecc;strokeColor=#b85450;" parent="1" vertex="1">
          <mxGeometry x="260" y="1140" width="140" height="60" as="geometry" />
        </mxCell>
        <mxCell id="Zr8373-K24QdLeZp-8y8-77" value="返还剩余额度" style="rounded=0;whiteSpace=wrap;html=1;strokeColor=#2D7600;fontFamily=Helvetica;fontSize=12;fontColor=#ffffff;fillColor=#60a917;" parent="1" vertex="1">
          <mxGeometry x="470" y="1140" width="120" height="60" as="geometry" />
        </mxCell>
        <mxCell id="Zr8373-K24QdLeZp-8y8-78" value="剩余授信 = 剩余授信 + 本期的应还本金" style="shape=note;whiteSpace=wrap;html=1;backgroundOutline=1;darkOpacity=0.05;rounded=0;strokeColor=#6c8ebf;fontFamily=Helvetica;fontSize=12;fillColor=#dae8fc;align=left;" parent="1" vertex="1">
          <mxGeometry x="680" y="1130" width="270" height="70" as="geometry" />
        </mxCell>
        <mxCell id="Zr8373-K24QdLeZp-8y8-82" value="" style="shape=flexArrow;endArrow=classic;html=1;rounded=0;fontFamily=Helvetica;fontSize=12;fontColor=default;" parent="1" edge="1">
          <mxGeometry width="50" height="50" relative="1" as="geometry">
            <mxPoint x="600" y="1168" as="sourcePoint" />
            <mxPoint x="670" y="1168.5" as="targetPoint" />
          </mxGeometry>
        </mxCell>
        <mxCell id="Zr8373-K24QdLeZp-8y8-86" value="将前面所有的转结订单的剩余本金额度都返还" style="rounded=0;whiteSpace=wrap;html=1;strokeColor=#2D7600;fontFamily=Helvetica;fontSize=12;fontColor=#ffffff;fillColor=#60a917;" parent="1" vertex="1">
          <mxGeometry x="270" y="1390" width="120" height="60" as="geometry" />
        </mxCell>
        <mxCell id="Zr8373-K24QdLeZp-8y8-98" style="edgeStyle=orthogonalEdgeStyle;rounded=0;orthogonalLoop=1;jettySize=auto;html=1;exitX=1;exitY=0.5;exitDx=0;exitDy=0;fontFamily=Helvetica;fontSize=12;fontColor=default;" parent="1" source="Zr8373-K24QdLeZp-8y8-99" edge="1">
          <mxGeometry relative="1" as="geometry">
            <mxPoint x="260" y="1730" as="targetPoint" />
          </mxGeometry>
        </mxCell>
        <mxCell id="Zr8373-K24QdLeZp-8y8-99" value="查询所有已转结的还款单" style="rounded=0;whiteSpace=wrap;html=1;fillColor=#d5e8d4;strokeColor=#82b366;" parent="1" vertex="1">
          <mxGeometry x="90" y="1700" width="120" height="60" as="geometry" />
        </mxCell>
        <mxCell id="Zr8373-K24QdLeZp-8y8-110" style="edgeStyle=orthogonalEdgeStyle;rounded=0;orthogonalLoop=1;jettySize=auto;html=1;exitX=1;exitY=0.5;exitDx=0;exitDy=0;fontFamily=Helvetica;fontSize=12;fontColor=default;" parent="1" source="Zr8373-K24QdLeZp-8y8-104" edge="1">
          <mxGeometry relative="1" as="geometry">
            <mxPoint x="660" y="1730" as="targetPoint" />
          </mxGeometry>
        </mxCell>
        <mxCell id="Zr8373-K24QdLeZp-8y8-111" value="是" style="edgeLabel;html=1;align=center;verticalAlign=middle;resizable=0;points=[];fontSize=12;fontFamily=Helvetica;fontColor=default;" parent="Zr8373-K24QdLeZp-8y8-110" vertex="1" connectable="0">
          <mxGeometry x="-0.106" y="-3" relative="1" as="geometry">
            <mxPoint as="offset" />
          </mxGeometry>
        </mxCell>
        <mxCell id="Zr8373-K24QdLeZp-8y8-112" style="edgeStyle=orthogonalEdgeStyle;rounded=0;orthogonalLoop=1;jettySize=auto;html=1;exitX=0.5;exitY=1;exitDx=0;exitDy=0;fontFamily=Helvetica;fontSize=12;fontColor=default;" parent="1" source="Zr8373-K24QdLeZp-8y8-104" edge="1">
          <mxGeometry relative="1" as="geometry">
            <mxPoint x="494" y="1830" as="targetPoint" />
          </mxGeometry>
        </mxCell>
        <mxCell id="Zr8373-K24QdLeZp-8y8-113" value="否" style="edgeLabel;html=1;align=center;verticalAlign=middle;resizable=0;points=[];fontSize=12;fontFamily=Helvetica;fontColor=default;" parent="Zr8373-K24QdLeZp-8y8-112" vertex="1" connectable="0">
          <mxGeometry x="-0.0043" relative="1" as="geometry">
            <mxPoint as="offset" />
          </mxGeometry>
        </mxCell>
        <mxCell id="Zr8373-K24QdLeZp-8y8-104" value="判断还款金额是否大于等于应还本金" style="rhombus;whiteSpace=wrap;html=1;fillColor=#f8cecc;strokeColor=#b85450;" parent="1" vertex="1">
          <mxGeometry x="423.75" y="1700" width="140" height="60" as="geometry" />
        </mxCell>
        <mxCell id="Zr8373-K24QdLeZp-8y8-109" style="edgeStyle=orthogonalEdgeStyle;rounded=0;orthogonalLoop=1;jettySize=auto;html=1;exitX=1;exitY=0.5;exitDx=0;exitDy=0;entryX=0;entryY=0.5;entryDx=0;entryDy=0;fontFamily=Helvetica;fontSize=12;fontColor=default;" parent="1" source="Zr8373-K24QdLeZp-8y8-105" target="Zr8373-K24QdLeZp-8y8-104" edge="1">
          <mxGeometry relative="1" as="geometry" />
        </mxCell>
        <mxCell id="Zr8373-K24QdLeZp-8y8-105" value="返还剩余额度" style="rounded=0;whiteSpace=wrap;html=1;strokeColor=default;fontFamily=Helvetica;fontSize=12;fontColor=default;fillColor=default;" parent="1" vertex="1">
          <mxGeometry x="260" y="1700" width="120" height="60" as="geometry" />
        </mxCell>
        <mxCell id="Zr8373-K24QdLeZp-8y8-108" value="返还额度为应还本金" style="rounded=0;whiteSpace=wrap;html=1;strokeColor=#2D7600;fontFamily=Helvetica;fontSize=12;fontColor=#ffffff;fillColor=#60a917;" parent="1" vertex="1">
          <mxGeometry x="660" y="1700" width="120" height="60" as="geometry" />
        </mxCell>
        <mxCell id="Zr8373-K24QdLeZp-8y8-114" value="返还额度为还款金额" style="rounded=0;whiteSpace=wrap;html=1;strokeColor=#2D7600;fontFamily=Helvetica;fontSize=12;fontColor=#ffffff;fillColor=#60a917;" parent="1" vertex="1">
          <mxGeometry x="433.75" y="1830" width="120" height="60" as="geometry" />
        </mxCell>
        <mxCell id="Zr8373-K24QdLeZp-8y8-160" style="edgeStyle=orthogonalEdgeStyle;rounded=0;orthogonalLoop=1;jettySize=auto;html=1;fontFamily=Helvetica;fontSize=12;fontColor=default;" parent="1" source="Zr8373-K24QdLeZp-8y8-159" edge="1">
          <mxGeometry relative="1" as="geometry">
            <mxPoint x="330" y="1390" as="targetPoint" />
          </mxGeometry>
        </mxCell>
        <mxCell id="Zr8373-K24QdLeZp-8y8-161" value="否" style="edgeLabel;html=1;align=center;verticalAlign=middle;resizable=0;points=[];fontSize=12;fontFamily=Helvetica;fontColor=default;" parent="Zr8373-K24QdLeZp-8y8-160" vertex="1" connectable="0">
          <mxGeometry x="-0.1056" y="2" relative="1" as="geometry">
            <mxPoint as="offset" />
          </mxGeometry>
        </mxCell>
        <mxCell id="Zr8373-K24QdLeZp-8y8-165" style="edgeStyle=orthogonalEdgeStyle;rounded=0;orthogonalLoop=1;jettySize=auto;html=1;fontFamily=Helvetica;fontSize=12;fontColor=default;" parent="1" source="Zr8373-K24QdLeZp-8y8-159" edge="1">
          <mxGeometry relative="1" as="geometry">
            <mxPoint x="200" y="1280" as="targetPoint" />
          </mxGeometry>
        </mxCell>
        <mxCell id="Zr8373-K24QdLeZp-8y8-159" value="判断上一期是否为转结" style="rhombus;whiteSpace=wrap;html=1;fillColor=#f8cecc;strokeColor=#b85450;" parent="1" vertex="1">
          <mxGeometry x="260" y="1250" width="140" height="60" as="geometry" />
        </mxCell>
        <mxCell id="Zr8373-K24QdLeZp-8y8-166" value="返还本期剩余额度" style="rounded=0;whiteSpace=wrap;html=1;strokeColor=#2D7600;fontFamily=Helvetica;fontSize=12;fontColor=#ffffff;fillColor=#60a917;" parent="1" vertex="1">
          <mxGeometry x="80" y="1250" width="120" height="60" as="geometry" />
        </mxCell>
        <mxCell id="Zr8373-K24QdLeZp-8y8-167" value="" style="shape=curlyBracket;whiteSpace=wrap;html=1;rounded=1;labelPosition=left;verticalLabelPosition=middle;align=right;verticalAlign=middle;strokeColor=default;fontFamily=Helvetica;fontSize=12;fontColor=default;fillColor=default;" parent="1" vertex="1">
          <mxGeometry x="433.75" y="1290" width="20" height="240" as="geometry" />
        </mxCell>
        <mxCell id="Zr8373-K24QdLeZp-8y8-168" value="" style="shape=flexArrow;endArrow=classic;html=1;rounded=0;fontFamily=Helvetica;fontSize=12;fontColor=default;entryX=0.3;entryY=0.542;entryDx=0;entryDy=0;entryPerimeter=0;" parent="1" target="Zr8373-K24QdLeZp-8y8-167" edge="1">
          <mxGeometry width="50" height="50" relative="1" as="geometry">
            <mxPoint x="400" y="1420" as="sourcePoint" />
            <mxPoint x="450" y="1370" as="targetPoint" />
          </mxGeometry>
        </mxCell>
        <mxCell id="Zr8373-K24QdLeZp-8y8-173" value="" style="group" parent="1" vertex="1" connectable="0">
          <mxGeometry x="490" y="1280" width="530" height="40" as="geometry" />
        </mxCell>
        <mxCell id="Zr8373-K24QdLeZp-8y8-129" value="" style="shape=table;startSize=0;container=1;collapsible=0;childLayout=tableLayout;fontSize=16;rounded=0;strokeColor=default;fontFamily=Helvetica;fontColor=default;fillColor=default;html=1;" parent="Zr8373-K24QdLeZp-8y8-173" vertex="1">
          <mxGeometry width="410" height="40" as="geometry" />
        </mxCell>
        <mxCell id="Zr8373-K24QdLeZp-8y8-130" value="" style="shape=tableRow;horizontal=0;startSize=0;swimlaneHead=0;swimlaneBody=0;strokeColor=inherit;top=0;left=0;bottom=0;right=0;collapsible=0;dropTarget=0;fillColor=none;points=[[0,0.5],[1,0.5]];portConstraint=eastwest;fontSize=16;rounded=0;fontFamily=Helvetica;fontColor=default;html=1;" parent="Zr8373-K24QdLeZp-8y8-129" vertex="1">
          <mxGeometry width="410" height="40" as="geometry" />
        </mxCell>
        <mxCell id="Zr8373-K24QdLeZp-8y8-131" value="第一期" style="shape=partialRectangle;html=1;whiteSpace=wrap;connectable=0;strokeColor=inherit;overflow=hidden;fillColor=none;top=0;left=0;bottom=0;right=0;pointerEvents=1;fontSize=16;rounded=0;fontFamily=Helvetica;fontColor=default;" parent="Zr8373-K24QdLeZp-8y8-130" vertex="1">
          <mxGeometry width="70" height="40" as="geometry">
            <mxRectangle width="70" height="40" as="alternateBounds" />
          </mxGeometry>
        </mxCell>
        <mxCell id="Zr8373-K24QdLeZp-8y8-132" value="应还本金900" style="shape=partialRectangle;html=1;whiteSpace=wrap;connectable=0;strokeColor=inherit;overflow=hidden;fillColor=none;top=0;left=0;bottom=0;right=0;pointerEvents=1;fontSize=16;rounded=0;fontFamily=Helvetica;fontColor=default;" parent="Zr8373-K24QdLeZp-8y8-130" vertex="1">
          <mxGeometry x="70" width="160" height="40" as="geometry">
            <mxRectangle width="160" height="40" as="alternateBounds" />
          </mxGeometry>
        </mxCell>
        <mxCell id="Zr8373-K24QdLeZp-8y8-133" value="还款金额800" style="shape=partialRectangle;html=1;whiteSpace=wrap;connectable=0;strokeColor=inherit;overflow=hidden;fillColor=none;top=0;left=0;bottom=0;right=0;pointerEvents=1;fontSize=16;rounded=0;fontFamily=Helvetica;fontColor=default;" parent="Zr8373-K24QdLeZp-8y8-130" vertex="1">
          <mxGeometry x="230" width="180" height="40" as="geometry">
            <mxRectangle width="180" height="40" as="alternateBounds" />
          </mxGeometry>
        </mxCell>
        <mxCell id="Zr8373-K24QdLeZp-8y8-153" value="已转结" style="whiteSpace=wrap;html=1;fontSize=16;startSize=0;rounded=0;" parent="Zr8373-K24QdLeZp-8y8-173" vertex="1">
          <mxGeometry x="410" width="120" height="40" as="geometry" />
        </mxCell>
        <mxCell id="Zr8373-K24QdLeZp-8y8-174" value="" style="group" parent="1" vertex="1" connectable="0">
          <mxGeometry x="490" y="1390" width="530" height="40" as="geometry" />
        </mxCell>
        <mxCell id="Zr8373-K24QdLeZp-8y8-142" value="" style="shape=table;startSize=0;container=1;collapsible=0;childLayout=tableLayout;fontSize=16;rounded=0;strokeColor=default;fontFamily=Helvetica;fontColor=default;fillColor=default;html=1;" parent="Zr8373-K24QdLeZp-8y8-174" vertex="1">
          <mxGeometry width="410" height="40" as="geometry" />
        </mxCell>
        <mxCell id="Zr8373-K24QdLeZp-8y8-143" value="" style="shape=tableRow;horizontal=0;startSize=0;swimlaneHead=0;swimlaneBody=0;strokeColor=inherit;top=0;left=0;bottom=0;right=0;collapsible=0;dropTarget=0;fillColor=none;points=[[0,0.5],[1,0.5]];portConstraint=eastwest;fontSize=16;rounded=0;fontFamily=Helvetica;fontColor=default;html=1;" parent="Zr8373-K24QdLeZp-8y8-142" vertex="1">
          <mxGeometry width="410" height="40" as="geometry" />
        </mxCell>
        <mxCell id="Zr8373-K24QdLeZp-8y8-144" value="第二期" style="shape=partialRectangle;html=1;whiteSpace=wrap;connectable=0;strokeColor=inherit;overflow=hidden;fillColor=none;top=0;left=0;bottom=0;right=0;pointerEvents=1;fontSize=16;rounded=0;fontFamily=Helvetica;fontColor=default;" parent="Zr8373-K24QdLeZp-8y8-143" vertex="1">
          <mxGeometry width="70" height="40" as="geometry">
            <mxRectangle width="70" height="40" as="alternateBounds" />
          </mxGeometry>
        </mxCell>
        <mxCell id="Zr8373-K24QdLeZp-8y8-145" value="应还本金1000" style="shape=partialRectangle;html=1;whiteSpace=wrap;connectable=0;strokeColor=inherit;overflow=hidden;fillColor=none;top=0;left=0;bottom=0;right=0;pointerEvents=1;fontSize=16;rounded=0;fontFamily=Helvetica;fontColor=default;" parent="Zr8373-K24QdLeZp-8y8-143" vertex="1">
          <mxGeometry x="70" width="160" height="40" as="geometry">
            <mxRectangle width="160" height="40" as="alternateBounds" />
          </mxGeometry>
        </mxCell>
        <mxCell id="Zr8373-K24QdLeZp-8y8-146" value="还款金额1200" style="shape=partialRectangle;html=1;whiteSpace=wrap;connectable=0;strokeColor=inherit;overflow=hidden;fillColor=none;top=0;left=0;bottom=0;right=0;pointerEvents=1;fontSize=16;rounded=0;fontFamily=Helvetica;fontColor=default;" parent="Zr8373-K24QdLeZp-8y8-143" vertex="1">
          <mxGeometry x="230" width="180" height="40" as="geometry">
            <mxRectangle width="180" height="40" as="alternateBounds" />
          </mxGeometry>
        </mxCell>
        <mxCell id="Zr8373-K24QdLeZp-8y8-155" value="已转结" style="whiteSpace=wrap;html=1;fontSize=16;startSize=0;rounded=0;" parent="Zr8373-K24QdLeZp-8y8-174" vertex="1">
          <mxGeometry x="410" width="120" height="40" as="geometry" />
        </mxCell>
        <mxCell id="Zr8373-K24QdLeZp-8y8-175" value="" style="group" parent="1" vertex="1" connectable="0">
          <mxGeometry x="490" y="1500" width="530" height="40" as="geometry" />
        </mxCell>
        <mxCell id="Zr8373-K24QdLeZp-8y8-147" value="" style="shape=table;startSize=0;container=1;collapsible=0;childLayout=tableLayout;fontSize=16;rounded=0;strokeColor=default;fontFamily=Helvetica;fontColor=default;fillColor=default;html=1;" parent="Zr8373-K24QdLeZp-8y8-175" vertex="1">
          <mxGeometry width="410" height="40" as="geometry" />
        </mxCell>
        <mxCell id="Zr8373-K24QdLeZp-8y8-148" value="" style="shape=tableRow;horizontal=0;startSize=0;swimlaneHead=0;swimlaneBody=0;strokeColor=inherit;top=0;left=0;bottom=0;right=0;collapsible=0;dropTarget=0;fillColor=none;points=[[0,0.5],[1,0.5]];portConstraint=eastwest;fontSize=16;rounded=0;fontFamily=Helvetica;fontColor=default;html=1;" parent="Zr8373-K24QdLeZp-8y8-147" vertex="1">
          <mxGeometry width="410" height="40" as="geometry" />
        </mxCell>
        <mxCell id="Zr8373-K24QdLeZp-8y8-149" value="第三期" style="shape=partialRectangle;html=1;whiteSpace=wrap;connectable=0;strokeColor=inherit;overflow=hidden;fillColor=none;top=0;left=0;bottom=0;right=0;pointerEvents=1;fontSize=16;rounded=0;fontFamily=Helvetica;fontColor=default;" parent="Zr8373-K24QdLeZp-8y8-148" vertex="1">
          <mxGeometry width="70" height="40" as="geometry">
            <mxRectangle width="70" height="40" as="alternateBounds" />
          </mxGeometry>
        </mxCell>
        <mxCell id="Zr8373-K24QdLeZp-8y8-150" value="应还本金1100" style="shape=partialRectangle;html=1;whiteSpace=wrap;connectable=0;strokeColor=inherit;overflow=hidden;fillColor=none;top=0;left=0;bottom=0;right=0;pointerEvents=1;fontSize=16;rounded=0;fontFamily=Helvetica;fontColor=default;" parent="Zr8373-K24QdLeZp-8y8-148" vertex="1">
          <mxGeometry x="70" width="160" height="40" as="geometry">
            <mxRectangle width="160" height="40" as="alternateBounds" />
          </mxGeometry>
        </mxCell>
        <mxCell id="Zr8373-K24QdLeZp-8y8-151" value="还款金额1900" style="shape=partialRectangle;html=1;whiteSpace=wrap;connectable=0;strokeColor=inherit;overflow=hidden;fillColor=none;top=0;left=0;bottom=0;right=0;pointerEvents=1;fontSize=16;rounded=0;fontFamily=Helvetica;fontColor=default;" parent="Zr8373-K24QdLeZp-8y8-148" vertex="1">
          <mxGeometry x="230" width="180" height="40" as="geometry">
            <mxRectangle width="180" height="40" as="alternateBounds" />
          </mxGeometry>
        </mxCell>
        <mxCell id="Zr8373-K24QdLeZp-8y8-156" value="已结清" style="whiteSpace=wrap;html=1;fontSize=16;startSize=0;rounded=0;" parent="Zr8373-K24QdLeZp-8y8-175" vertex="1">
          <mxGeometry x="410" width="120" height="40" as="geometry" />
        </mxCell>
        <mxCell id="Zr8373-K24QdLeZp-8y8-176" value="返还额度为: 1100" style="text;html=1;strokeColor=none;fillColor=none;align=center;verticalAlign=middle;whiteSpace=wrap;rounded=0;fontSize=12;fontFamily=Helvetica;fontColor=default;" parent="1" vertex="1">
          <mxGeometry x="1050" y="1505" width="160" height="30" as="geometry" />
        </mxCell>
        <mxCell id="Zr8373-K24QdLeZp-8y8-177" value="返还额度为: 0" style="text;html=1;strokeColor=none;fillColor=none;align=center;verticalAlign=middle;whiteSpace=wrap;rounded=0;fontSize=12;fontFamily=Helvetica;fontColor=default;" parent="1" vertex="1">
          <mxGeometry x="1050" y="1390" width="160" height="30" as="geometry" />
        </mxCell>
        <mxCell id="Zr8373-K24QdLeZp-8y8-178" value="返还额度为: 100" style="text;html=1;strokeColor=none;fillColor=none;align=center;verticalAlign=middle;whiteSpace=wrap;rounded=0;fontSize=12;fontFamily=Helvetica;fontColor=default;" parent="1" vertex="1">
          <mxGeometry x="1050" y="1280" width="160" height="30" as="geometry" />
        </mxCell>
        <mxCell id="Zr8373-K24QdLeZp-8y8-179" value="&lt;div align=&quot;left&quot;&gt;1.示例1：前四期都为转结，那么1-5期的授信额度都返还&lt;/div&gt;&lt;div align=&quot;left&quot;&gt;2.示例2：前三期为转结，第四期为结清，那么只返还第五期&lt;/div&gt;&lt;div align=&quot;left&quot;&gt;3.示例3：前两期为转结，第三期为结清，第四期为转结，那么只 &lt;span style=&quot;white-space: pre;&quot;&gt;&#x9;&lt;/span&gt;&lt;span style=&quot;white-space: pre;&quot;&gt;&#x9;&lt;/span&gt; 返还第四期和第五期&lt;/div&gt;&lt;div align=&quot;left&quot;&gt;4.示例4：如果前四期都为结清，那么只转结第五期&lt;/div&gt;&lt;div align=&quot;left&quot;&gt;&lt;br&gt;&lt;/div&gt;&lt;div align=&quot;left&quot;&gt;&lt;br&gt;&lt;/div&gt;&lt;div align=&quot;left&quot;&gt;&lt;font color=&quot;#ff0000&quot;&gt;tips：还款时已经限制了，只有前一期为转结或者结清时，才能使状态变为已结清&lt;/font&gt;&lt;br&gt;&lt;/div&gt;" style="rounded=0;whiteSpace=wrap;html=1;strokeColor=default;fontFamily=Helvetica;fontSize=12;fontColor=default;fillColor=default;align=left;" parent="1" vertex="1">
          <mxGeometry x="80" y="1475" width="350" height="165" as="geometry" />
        </mxCell>
        <mxCell id="Zr8373-K24QdLeZp-8y8-180" value="假设有6期，当前第五期" style="rounded=1;whiteSpace=wrap;html=1;strokeColor=default;fontFamily=Helvetica;fontSize=12;fontColor=default;fillColor=default;" parent="1" vertex="1">
          <mxGeometry x="80" y="1375" width="120" height="60" as="geometry" />
        </mxCell>
        <mxCell id="Zr8373-K24QdLeZp-8y8-181" value="" style="shape=flexArrow;endArrow=classic;html=1;rounded=0;fontFamily=Helvetica;fontSize=12;fontColor=default;width=10;endSize=3.7;" parent="1" edge="1">
          <mxGeometry width="50" height="50" relative="1" as="geometry">
            <mxPoint x="260" y="1410" as="sourcePoint" />
            <mxPoint x="210" y="1410" as="targetPoint" />
          </mxGeometry>
        </mxCell>
        <mxCell id="Zr8373-K24QdLeZp-8y8-182" value="" style="shape=link;html=1;rounded=0;fontFamily=Helvetica;fontSize=12;fontColor=default;width=40;" parent="1" edge="1">
          <mxGeometry width="100" relative="1" as="geometry">
            <mxPoint x="30" y="2000" as="sourcePoint" />
            <mxPoint x="1354" y="2000" as="targetPoint" />
          </mxGeometry>
        </mxCell>
        <mxCell id="Zr8373-K24QdLeZp-8y8-183" value="&lt;font color=&quot;#ff6666&quot;&gt;&lt;b&gt;还款单状态流转&lt;/b&gt;&lt;/font&gt;" style="text;html=1;align=center;verticalAlign=middle;resizable=0;points=[];autosize=1;strokeColor=none;fillColor=none;fontSize=19;fontFamily=Helvetica;fontColor=default;" parent="1" vertex="1">
          <mxGeometry x="20" y="2031" width="160" height="40" as="geometry" />
        </mxCell>
        <mxCell id="Zr8373-K24QdLeZp-8y8-184" value="待还款" style="rounded=0;whiteSpace=wrap;html=1;strokeColor=#56517e;fontFamily=Helvetica;fontSize=12;fillColor=#d0cee2;" parent="1" vertex="1">
          <mxGeometry x="723" y="2270" width="120" height="80" as="geometry" />
        </mxCell>
        <mxCell id="Zr8373-K24QdLeZp-8y8-185" value="已转结" style="rounded=0;whiteSpace=wrap;html=1;strokeColor=#56517e;fontFamily=Helvetica;fontSize=12;fillColor=#d0cee2;" parent="1" vertex="1">
          <mxGeometry x="1250" y="2325" width="120" height="50" as="geometry" />
        </mxCell>
        <mxCell id="Zr8373-K24QdLeZp-8y8-186" value="逾期" style="rounded=0;whiteSpace=wrap;html=1;strokeColor=#56517e;fontFamily=Helvetica;fontSize=12;fillColor=#d0cee2;" parent="1" vertex="1">
          <mxGeometry x="1250" y="2410" width="120" height="50" as="geometry" />
        </mxCell>
        <mxCell id="Zr8373-K24QdLeZp-8y8-187" value="已还款" style="rounded=0;whiteSpace=wrap;html=1;strokeColor=#56517e;fontFamily=Helvetica;fontSize=12;fillColor=#d0cee2;" parent="1" vertex="1">
          <mxGeometry x="891.5" y="2635" width="88.5" height="30" as="geometry" />
        </mxCell>
        <mxCell id="Zr8373-K24QdLeZp-8y8-188" value="部分还款" style="rounded=0;whiteSpace=wrap;html=1;strokeColor=#56517e;fontFamily=Helvetica;fontSize=12;fillColor=#d0cee2;" parent="1" vertex="1">
          <mxGeometry x="840" y="2470" width="90" height="30" as="geometry" />
        </mxCell>
        <mxCell id="Zr8373-K24QdLeZp-8y8-202" style="edgeStyle=orthogonalEdgeStyle;rounded=0;orthogonalLoop=1;jettySize=auto;html=1;exitX=1;exitY=0.5;exitDx=0;exitDy=0;entryX=0;entryY=0.5;entryDx=0;entryDy=0;fontFamily=Helvetica;fontSize=12;fontColor=default;" parent="1" source="Zr8373-K24QdLeZp-8y8-194" target="Zr8373-K24QdLeZp-8y8-201" edge="1">
          <mxGeometry relative="1" as="geometry" />
        </mxCell>
        <mxCell id="Zr8373-K24QdLeZp-8y8-203" style="edgeStyle=orthogonalEdgeStyle;rounded=0;orthogonalLoop=1;jettySize=auto;html=1;exitX=1;exitY=0.5;exitDx=0;exitDy=0;fontFamily=Helvetica;fontSize=12;fontColor=default;" parent="1" source="Zr8373-K24QdLeZp-8y8-201" edge="1">
          <mxGeometry relative="1" as="geometry">
            <mxPoint x="583" y="2218" as="targetPoint" />
          </mxGeometry>
        </mxCell>
        <mxCell id="Zr8373-K24QdLeZp-8y8-210" value="客户端" style="shape=umlLifeline;perimeter=lifelinePerimeter;whiteSpace=wrap;html=1;container=1;dropTarget=0;collapsible=0;recursiveResize=0;outlineConnect=0;portConstraint=eastwest;newEdgeStyle={&quot;curved&quot;:0,&quot;rounded&quot;:0};rounded=0;strokeColor=default;fontFamily=Helvetica;fontSize=12;fontColor=default;fillColor=default;" parent="1" vertex="1">
          <mxGeometry x="200.5" y="2110" width="100" height="610" as="geometry" />
        </mxCell>
        <mxCell id="Zr8373-K24QdLeZp-8y8-211" value="管理端" style="shape=umlLifeline;perimeter=lifelinePerimeter;whiteSpace=wrap;html=1;container=1;dropTarget=0;collapsible=0;recursiveResize=0;outlineConnect=0;portConstraint=eastwest;newEdgeStyle={&quot;curved&quot;:0,&quot;rounded&quot;:0};rounded=0;strokeColor=default;fontFamily=Helvetica;fontSize=12;fontColor=default;fillColor=default;" parent="1" vertex="1">
          <mxGeometry x="510.5" y="2110" width="100" height="610" as="geometry" />
        </mxCell>
        <mxCell id="Zr8373-K24QdLeZp-8y8-212" value="系统" style="shape=umlLifeline;perimeter=lifelinePerimeter;whiteSpace=wrap;html=1;container=1;dropTarget=0;collapsible=0;recursiveResize=0;outlineConnect=0;portConstraint=eastwest;newEdgeStyle={&quot;curved&quot;:0,&quot;rounded&quot;:0};rounded=0;strokeColor=default;fontFamily=Helvetica;fontSize=12;fontColor=default;fillColor=default;" parent="1" vertex="1">
          <mxGeometry x="1060" y="2110" width="100" height="610" as="geometry" />
        </mxCell>
        <mxCell id="Zr8373-K24QdLeZp-8y8-194" value="客户上传放款凭证" style="rounded=0;whiteSpace=wrap;html=1;strokeColor=default;fontFamily=Helvetica;fontSize=12;fontColor=default;fillColor=default;" parent="1" vertex="1">
          <mxGeometry x="193" y="2188" width="120" height="60" as="geometry" />
        </mxCell>
        <mxCell id="Zr8373-K24QdLeZp-8y8-204" value="生成分期还款单" style="rounded=0;whiteSpace=wrap;html=1;strokeColor=default;fontFamily=Helvetica;fontSize=12;fontColor=default;fillColor=default;" parent="1" vertex="1">
          <mxGeometry x="500.5" y="2290" width="120" height="60" as="geometry" />
        </mxCell>
        <mxCell id="Zr8373-K24QdLeZp-8y8-219" style="edgeStyle=orthogonalEdgeStyle;rounded=0;orthogonalLoop=1;jettySize=auto;html=1;entryX=0.404;entryY=-0.017;entryDx=0;entryDy=0;entryPerimeter=0;fontFamily=Helvetica;fontSize=12;fontColor=default;" parent="1" source="Zr8373-K24QdLeZp-8y8-201" target="Zr8373-K24QdLeZp-8y8-204" edge="1">
          <mxGeometry relative="1" as="geometry" />
        </mxCell>
        <mxCell id="Zr8373-K24QdLeZp-8y8-201" value="管理端设置放款金额及放款日期" style="rounded=0;whiteSpace=wrap;html=1;strokeColor=default;fontFamily=Helvetica;fontSize=12;fontColor=default;fillColor=default;" parent="1" vertex="1">
          <mxGeometry x="497" y="2188" width="120" height="60" as="geometry" />
        </mxCell>
        <mxCell id="Zr8373-K24QdLeZp-8y8-214" value="" style="shape=flexArrow;endArrow=classic;html=1;rounded=0;fontFamily=Helvetica;fontSize=12;fontColor=default;" parent="1" edge="1">
          <mxGeometry width="50" height="50" relative="1" as="geometry">
            <mxPoint x="630.5" y="2319.5" as="sourcePoint" />
            <mxPoint x="710.5" y="2319.5" as="targetPoint" />
          </mxGeometry>
        </mxCell>
        <mxCell id="Zr8373-K24QdLeZp-8y8-215" value="还款单初始化" style="text;html=1;align=center;verticalAlign=middle;resizable=0;points=[];autosize=1;strokeColor=none;fillColor=none;fontSize=12;fontFamily=Helvetica;fontColor=default;" parent="1" vertex="1">
          <mxGeometry x="620.5" y="2270" width="100" height="30" as="geometry" />
        </mxCell>
        <mxCell id="Zr8373-K24QdLeZp-8y8-218" style="edgeStyle=orthogonalEdgeStyle;rounded=0;orthogonalLoop=1;jettySize=auto;html=1;fontFamily=Helvetica;fontSize=12;fontColor=default;" parent="1" source="Zr8373-K24QdLeZp-8y8-216" edge="1">
          <mxGeometry relative="1" as="geometry">
            <mxPoint x="498" y="2450" as="targetPoint" />
          </mxGeometry>
        </mxCell>
        <mxCell id="Zr8373-K24QdLeZp-8y8-216" value="客户上传还款凭证" style="rounded=0;whiteSpace=wrap;html=1;strokeColor=default;fontFamily=Helvetica;fontSize=12;fontColor=default;fillColor=default;" parent="1" vertex="1">
          <mxGeometry x="193" y="2420" width="120" height="60" as="geometry" />
        </mxCell>
        <mxCell id="Zr8373-K24QdLeZp-8y8-226" style="edgeStyle=orthogonalEdgeStyle;rounded=0;orthogonalLoop=1;jettySize=auto;html=1;fontFamily=Helvetica;fontSize=12;fontColor=default;" parent="1" source="Zr8373-K24QdLeZp-8y8-217" target="Zr8373-K24QdLeZp-8y8-222" edge="1">
          <mxGeometry relative="1" as="geometry" />
        </mxCell>
        <mxCell id="Zr8373-K24QdLeZp-8y8-217" value="管理端设置还款金额" style="rounded=0;whiteSpace=wrap;html=1;strokeColor=default;fontFamily=Helvetica;fontSize=12;fontColor=default;fillColor=default;" parent="1" vertex="1">
          <mxGeometry x="500.5" y="2420" width="120" height="60" as="geometry" />
        </mxCell>
        <mxCell id="Zr8373-K24QdLeZp-8y8-222" value="设置还款状态" style="rounded=0;whiteSpace=wrap;html=1;strokeColor=default;fontFamily=Helvetica;fontSize=12;fontColor=default;fillColor=default;" parent="1" vertex="1">
          <mxGeometry x="500.5" y="2540" width="120" height="60" as="geometry" />
        </mxCell>
        <mxCell id="Zr8373-K24QdLeZp-8y8-227" value="" style="shape=flexArrow;endArrow=classic;html=1;rounded=0;fontFamily=Helvetica;fontSize=12;fontColor=default;" parent="1" edge="1">
          <mxGeometry width="50" height="50" relative="1" as="geometry">
            <mxPoint x="620.5" y="2569.5" as="sourcePoint" />
            <mxPoint x="680" y="2570" as="targetPoint" />
          </mxGeometry>
        </mxCell>
        <mxCell id="Zr8373-K24QdLeZp-8y8-229" value="" style="shape=curlyBracket;whiteSpace=wrap;html=1;rounded=1;labelPosition=left;verticalLabelPosition=middle;align=right;verticalAlign=middle;strokeColor=default;fontFamily=Helvetica;fontSize=12;fontColor=default;fillColor=default;size=0.5;" parent="1" vertex="1">
          <mxGeometry x="680" y="2480" width="20" height="180" as="geometry" />
        </mxCell>
        <mxCell id="Zr8373-K24QdLeZp-8y8-230" value="还款金额小于应还金额" style="rounded=0;whiteSpace=wrap;html=1;strokeColor=default;fontFamily=Helvetica;fontSize=12;fontColor=default;fillColor=default;" parent="1" vertex="1">
          <mxGeometry x="707" y="2470" width="73" height="30" as="geometry" />
        </mxCell>
        <mxCell id="Zr8373-K24QdLeZp-8y8-231" value="" style="shape=flexArrow;endArrow=classic;html=1;rounded=0;fontFamily=Helvetica;fontSize=12;fontColor=default;" parent="1" edge="1">
          <mxGeometry width="50" height="50" relative="1" as="geometry">
            <mxPoint x="787" y="2484.5" as="sourcePoint" />
            <mxPoint x="827" y="2484.5" as="targetPoint" />
          </mxGeometry>
        </mxCell>
        <mxCell id="Zr8373-K24QdLeZp-8y8-232" value="还款金额等于应还金额，但上一笔还款未结清也未转结" style="rounded=0;whiteSpace=wrap;html=1;strokeColor=default;fontFamily=Helvetica;fontSize=12;fontColor=default;fillColor=default;" parent="1" vertex="1">
          <mxGeometry x="707" y="2530" width="123" height="60" as="geometry" />
        </mxCell>
        <mxCell id="Zr8373-K24QdLeZp-8y8-233" value="部分还款" style="rounded=0;whiteSpace=wrap;html=1;strokeColor=#56517e;fontFamily=Helvetica;fontSize=12;fillColor=#d0cee2;" parent="1" vertex="1">
          <mxGeometry x="891.5" y="2545" width="90" height="30" as="geometry" />
        </mxCell>
        <mxCell id="Zr8373-K24QdLeZp-8y8-234" value="" style="shape=flexArrow;endArrow=classic;html=1;rounded=0;fontFamily=Helvetica;fontSize=12;fontColor=default;" parent="1" edge="1">
          <mxGeometry width="50" height="50" relative="1" as="geometry">
            <mxPoint x="838.5" y="2559.5" as="sourcePoint" />
            <mxPoint x="878.5" y="2559.5" as="targetPoint" />
          </mxGeometry>
        </mxCell>
        <mxCell id="Zr8373-K24QdLeZp-8y8-235" value="还款金额等于应还金额，但上一笔还款结清或转结" style="rounded=0;whiteSpace=wrap;html=1;strokeColor=default;fontFamily=Helvetica;fontSize=12;fontColor=default;fillColor=default;" parent="1" vertex="1">
          <mxGeometry x="707" y="2620" width="123" height="60" as="geometry" />
        </mxCell>
        <mxCell id="Zr8373-K24QdLeZp-8y8-236" value="" style="shape=flexArrow;endArrow=classic;html=1;rounded=0;fontFamily=Helvetica;fontSize=12;fontColor=default;" parent="1" edge="1">
          <mxGeometry width="50" height="50" relative="1" as="geometry">
            <mxPoint x="840" y="2650" as="sourcePoint" />
            <mxPoint x="880.5" y="2650.5" as="targetPoint" />
          </mxGeometry>
        </mxCell>
        <mxCell id="Zr8373-K24QdLeZp-8y8-240" style="edgeStyle=orthogonalEdgeStyle;rounded=0;orthogonalLoop=1;jettySize=auto;html=1;fontFamily=Helvetica;fontSize=12;fontColor=default;" parent="1" source="Zr8373-K24QdLeZp-8y8-238" target="Zr8373-K24QdLeZp-8y8-239" edge="1">
          <mxGeometry relative="1" as="geometry" />
        </mxCell>
        <mxCell id="Zr8373-K24QdLeZp-8y8-238" value="根据当前日期(n-now)，查询所有还款逾期的还款单" style="rounded=0;whiteSpace=wrap;html=1;" parent="1" vertex="1">
          <mxGeometry x="1050" y="2188" width="120" height="60" as="geometry" />
        </mxCell>
        <mxCell id="Zr8373-K24QdLeZp-8y8-241" style="edgeStyle=orthogonalEdgeStyle;rounded=0;orthogonalLoop=1;jettySize=auto;html=1;exitX=1;exitY=0.5;exitDx=0;exitDy=0;fontFamily=Helvetica;fontSize=12;fontColor=default;" parent="1" source="Zr8373-K24QdLeZp-8y8-239" edge="1">
          <mxGeometry relative="1" as="geometry">
            <mxPoint x="1250" y="2350" as="targetPoint" />
          </mxGeometry>
        </mxCell>
        <mxCell id="Zr8373-K24QdLeZp-8y8-242" value="是" style="edgeLabel;html=1;align=center;verticalAlign=middle;resizable=0;points=[];fontSize=12;fontFamily=Helvetica;fontColor=default;" parent="Zr8373-K24QdLeZp-8y8-241" vertex="1" connectable="0">
          <mxGeometry x="0.0458" y="-2" relative="1" as="geometry">
            <mxPoint as="offset" />
          </mxGeometry>
        </mxCell>
        <mxCell id="Zr8373-K24QdLeZp-8y8-243" style="edgeStyle=orthogonalEdgeStyle;rounded=0;orthogonalLoop=1;jettySize=auto;html=1;exitX=0.5;exitY=1;exitDx=0;exitDy=0;fontFamily=Helvetica;fontSize=12;fontColor=default;entryX=0;entryY=0.5;entryDx=0;entryDy=0;" parent="1" source="Zr8373-K24QdLeZp-8y8-239" target="Zr8373-K24QdLeZp-8y8-186" edge="1">
          <mxGeometry relative="1" as="geometry">
            <mxPoint x="1240" y="2460" as="targetPoint" />
          </mxGeometry>
        </mxCell>
        <mxCell id="Zr8373-K24QdLeZp-8y8-244" value="否" style="edgeLabel;html=1;align=center;verticalAlign=middle;resizable=0;points=[];fontSize=12;fontFamily=Helvetica;fontColor=default;" parent="Zr8373-K24QdLeZp-8y8-243" vertex="1" connectable="0">
          <mxGeometry x="-0.0054" y="2" relative="1" as="geometry">
            <mxPoint as="offset" />
          </mxGeometry>
        </mxCell>
        <mxCell id="Zr8373-K24QdLeZp-8y8-239" value="是否超过下一期的应还款日期" style="rhombus;whiteSpace=wrap;html=1;fillColor=#f8cecc;strokeColor=#b85450;" parent="1" vertex="1">
          <mxGeometry x="1045" y="2310" width="130" height="80" as="geometry" />
        </mxCell>
        <mxCell id="Zr8373-K24QdLeZp-8y8-247" value="" style="endArrow=none;html=1;rounded=0;fontFamily=Helvetica;fontSize=12;fontColor=default;" parent="1" edge="1">
          <mxGeometry width="50" height="50" relative="1" as="geometry">
            <mxPoint x="40" y="1680" as="sourcePoint" />
            <mxPoint x="1240" y="1680" as="targetPoint" />
          </mxGeometry>
        </mxCell>
        <mxCell id="Zr8373-K24QdLeZp-8y8-249" value="" style="shape=link;html=1;rounded=0;fontFamily=Helvetica;fontSize=12;fontColor=default;width=40;" parent="1" edge="1">
          <mxGeometry width="100" relative="1" as="geometry">
            <mxPoint x="20" y="2760" as="sourcePoint" />
            <mxPoint x="1344" y="2760" as="targetPoint" />
          </mxGeometry>
        </mxCell>
        <mxCell id="2_UDLm3RMH8MQwXrRxa8-1" value="" style="shape=flexArrow;endArrow=classic;html=1;rounded=0;" edge="1" parent="1">
          <mxGeometry width="50" height="50" relative="1" as="geometry">
            <mxPoint x="160" y="400" as="sourcePoint" />
            <mxPoint x="160" y="450" as="targetPoint" />
          </mxGeometry>
        </mxCell>
        <mxCell id="2_UDLm3RMH8MQwXrRxa8-2" value="当前日期大于应还款日期" style="rounded=1;whiteSpace=wrap;html=1;" vertex="1" parent="1">
          <mxGeometry x="100" y="460" width="120" height="60" as="geometry" />
        </mxCell>
        <mxCell id="2_UDLm3RMH8MQwXrRxa8-3" value="&lt;div align=&quot;left&quot;&gt;还款单参数:&lt;/div&gt;&lt;div align=&quot;left&quot;&gt;1.还款金额(本金 + 利息)&lt;/div&gt;&lt;div align=&quot;left&quot;&gt;2.本金&lt;/div&gt;&lt;div align=&quot;left&quot;&gt;3.利息&lt;/div&gt;&lt;div align=&quot;left&quot;&gt;4.还款状态&lt;/div&gt;&lt;div align=&quot;left&quot;&gt;5.逾期利息&lt;/div&gt;&lt;div align=&quot;left&quot;&gt;6.转结金额&lt;/div&gt;&lt;div align=&quot;left&quot;&gt;7.应还款日期&lt;/div&gt;&lt;div align=&quot;left&quot;&gt;8.实际还款日期&lt;br&gt;&lt;/div&gt;" style="shape=note;whiteSpace=wrap;html=1;backgroundOutline=1;darkOpacity=0.05;fillColor=#ffff88;strokeColor=#36393d;align=left;" vertex="1" parent="1">
          <mxGeometry x="863.38" y="340" width="146.62" height="180" as="geometry" />
        </mxCell>
        <mxCell id="2_UDLm3RMH8MQwXrRxa8-6" value="&lt;font color=&quot;#ff6666&quot;&gt;&lt;b&gt;还款功能设计&lt;/b&gt;&lt;/font&gt;" style="text;html=1;align=center;verticalAlign=middle;resizable=0;points=[];autosize=1;strokeColor=none;fillColor=none;fontSize=19;fontFamily=Helvetica;fontColor=default;" vertex="1" parent="1">
          <mxGeometry x="40" y="2800" width="140" height="40" as="geometry" />
        </mxCell>
        <mxCell id="2_UDLm3RMH8MQwXrRxa8-7" value="管理端设置还款时间和还款金额" style="rounded=0;whiteSpace=wrap;html=1;strokeColor=#d79b00;fontFamily=Helvetica;fontSize=12;fillColor=#ffe6cc;" vertex="1" parent="1">
          <mxGeometry x="63" y="2863" width="120" height="60" as="geometry" />
        </mxCell>
        <mxCell id="2_UDLm3RMH8MQwXrRxa8-8" value="" style="shape=flexArrow;endArrow=classic;html=1;rounded=0;" edge="1" parent="1">
          <mxGeometry width="50" height="50" relative="1" as="geometry">
            <mxPoint x="120" y="2940" as="sourcePoint" />
            <mxPoint x="120" y="2990" as="targetPoint" />
          </mxGeometry>
        </mxCell>
        <mxCell id="2_UDLm3RMH8MQwXrRxa8-12" style="edgeStyle=orthogonalEdgeStyle;rounded=0;orthogonalLoop=1;jettySize=auto;html=1;" edge="1" parent="1" source="2_UDLm3RMH8MQwXrRxa8-9">
          <mxGeometry relative="1" as="geometry">
            <mxPoint x="230" y="3030" as="targetPoint" />
          </mxGeometry>
        </mxCell>
        <mxCell id="2_UDLm3RMH8MQwXrRxa8-9" value="查询该的还款单的状态" style="rounded=0;whiteSpace=wrap;html=1;fillColor=#d5e8d4;strokeColor=#82b366;" vertex="1" parent="1">
          <mxGeometry x="63" y="3000" width="120" height="60" as="geometry" />
        </mxCell>
        <mxCell id="2_UDLm3RMH8MQwXrRxa8-11" value="&lt;div align=&quot;left&quot;&gt;1.&lt;b&gt;&lt;i&gt;待还款&lt;/i&gt;&lt;/b&gt; ：还款单初始化未进行操作，或者客户端上传还款单证，但是还未编辑还款金额和日期&lt;/div&gt;&lt;div align=&quot;left&quot;&gt;2.&lt;b&gt;&lt;i&gt;部分还款&lt;/i&gt;&lt;/b&gt;：管理端设置了还款金额和还款日期，但是还款金额小于应还款金额&lt;/div&gt;&lt;div align=&quot;left&quot;&gt;3.&lt;b&gt;&lt;i&gt;已结清&lt;/i&gt;&lt;/b&gt;：管理端设置了还款金额和还款日期，并且还款金额等于应还款金额&lt;/div&gt;&lt;div align=&quot;left&quot;&gt;4.&lt;b&gt;&lt;i&gt;逾期&lt;/i&gt;&lt;/b&gt;：当前日期超出应还款日期，并超过宽限天数，并且还款金额小于应还金额&lt;/div&gt;&lt;div align=&quot;left&quot;&gt;5.&lt;b&gt;&lt;i&gt;转结&lt;/i&gt;&lt;/b&gt;：当前日期超出下一期的应还款日期，并且还款金额小于应还金额，此时未还的金额计入下一期的转结金额&lt;br&gt;&lt;/div&gt;&lt;div align=&quot;left&quot;&gt;&lt;b&gt;&lt;i&gt;&lt;br&gt;&lt;/i&gt;&lt;/b&gt;&lt;/div&gt;" style="shape=note;whiteSpace=wrap;html=1;backgroundOutline=1;darkOpacity=0.05;fillColor=#ffff88;strokeColor=#36393d;align=left;" vertex="1" parent="1">
          <mxGeometry x="270" y="2850" width="710" height="100" as="geometry" />
        </mxCell>
        <mxCell id="2_UDLm3RMH8MQwXrRxa8-14" style="edgeStyle=orthogonalEdgeStyle;rounded=0;orthogonalLoop=1;jettySize=auto;html=1;" edge="1" parent="1" source="2_UDLm3RMH8MQwXrRxa8-13">
          <mxGeometry relative="1" as="geometry">
            <mxPoint x="430" y="3030" as="targetPoint" />
          </mxGeometry>
        </mxCell>
        <mxCell id="2_UDLm3RMH8MQwXrRxa8-15" value="是" style="edgeLabel;html=1;align=center;verticalAlign=middle;resizable=0;points=[];" vertex="1" connectable="0" parent="2_UDLm3RMH8MQwXrRxa8-14">
          <mxGeometry x="-0.2319" relative="1" as="geometry">
            <mxPoint as="offset" />
          </mxGeometry>
        </mxCell>
        <mxCell id="2_UDLm3RMH8MQwXrRxa8-18" style="edgeStyle=orthogonalEdgeStyle;rounded=0;orthogonalLoop=1;jettySize=auto;html=1;exitX=0.5;exitY=1;exitDx=0;exitDy=0;" edge="1" parent="1" source="2_UDLm3RMH8MQwXrRxa8-13">
          <mxGeometry relative="1" as="geometry">
            <mxPoint x="296.5" y="3120" as="targetPoint" />
          </mxGeometry>
        </mxCell>
        <mxCell id="2_UDLm3RMH8MQwXrRxa8-19" value="否" style="edgeLabel;html=1;align=center;verticalAlign=middle;resizable=0;points=[];" vertex="1" connectable="0" parent="2_UDLm3RMH8MQwXrRxa8-18">
          <mxGeometry x="0.165" y="4" relative="1" as="geometry">
            <mxPoint as="offset" />
          </mxGeometry>
        </mxCell>
        <mxCell id="2_UDLm3RMH8MQwXrRxa8-13" value="&lt;div&gt;是否为&lt;/div&gt;&lt;div&gt;已结清或已转结&lt;br&gt;&lt;/div&gt;" style="rhombus;whiteSpace=wrap;html=1;fillColor=#f8cecc;strokeColor=#b85450;" vertex="1" parent="1">
          <mxGeometry x="231.5" y="2990" width="130" height="80" as="geometry" />
        </mxCell>
        <mxCell id="2_UDLm3RMH8MQwXrRxa8-16" value="不能编辑，提示还款状态错误" style="rounded=0;whiteSpace=wrap;html=1;strokeColor=#2D7600;fontFamily=Helvetica;fontSize=12;fontColor=#ffffff;fillColor=#60a917;" vertex="1" parent="1">
          <mxGeometry x="430" y="3000" width="120" height="60" as="geometry" />
        </mxCell>
        <mxCell id="2_UDLm3RMH8MQwXrRxa8-17" value="剩余授信 = 剩余授信 + 本期的应还本金" style="shape=note;whiteSpace=wrap;html=1;backgroundOutline=1;darkOpacity=0.05;rounded=0;strokeColor=#6c8ebf;fontFamily=Helvetica;fontSize=12;fillColor=#dae8fc;align=left;" vertex="1" parent="1">
          <mxGeometry x="760" y="3020" width="270" height="70" as="geometry" />
        </mxCell>
        <mxCell id="2_UDLm3RMH8MQwXrRxa8-21" style="edgeStyle=orthogonalEdgeStyle;rounded=0;orthogonalLoop=1;jettySize=auto;html=1;exitX=1;exitY=0.5;exitDx=0;exitDy=0;entryX=0;entryY=0.5;entryDx=0;entryDy=0;" edge="1" parent="1" source="2_UDLm3RMH8MQwXrRxa8-20" target="2_UDLm3RMH8MQwXrRxa8-36">
          <mxGeometry relative="1" as="geometry">
            <mxPoint x="480" y="3160" as="targetPoint" />
          </mxGeometry>
        </mxCell>
        <mxCell id="2_UDLm3RMH8MQwXrRxa8-22" value="是" style="edgeLabel;html=1;align=center;verticalAlign=middle;resizable=0;points=[];" vertex="1" connectable="0" parent="2_UDLm3RMH8MQwXrRxa8-21">
          <mxGeometry x="0.0516" y="-2" relative="1" as="geometry">
            <mxPoint as="offset" />
          </mxGeometry>
        </mxCell>
        <mxCell id="2_UDLm3RMH8MQwXrRxa8-96" style="edgeStyle=orthogonalEdgeStyle;rounded=0;orthogonalLoop=1;jettySize=auto;html=1;entryX=0.5;entryY=0;entryDx=0;entryDy=0;" edge="1" parent="1" source="2_UDLm3RMH8MQwXrRxa8-20" target="2_UDLm3RMH8MQwXrRxa8-97">
          <mxGeometry relative="1" as="geometry">
            <mxPoint x="296.5" y="3260" as="targetPoint" />
          </mxGeometry>
        </mxCell>
        <mxCell id="2_UDLm3RMH8MQwXrRxa8-98" value="否" style="edgeLabel;html=1;align=center;verticalAlign=middle;resizable=0;points=[];" vertex="1" connectable="0" parent="2_UDLm3RMH8MQwXrRxa8-96">
          <mxGeometry x="0.1636" y="1" relative="1" as="geometry">
            <mxPoint as="offset" />
          </mxGeometry>
        </mxCell>
        <mxCell id="2_UDLm3RMH8MQwXrRxa8-20" value="是否为待还款" style="rhombus;whiteSpace=wrap;html=1;fillColor=#f8cecc;strokeColor=#b85450;" vertex="1" parent="1">
          <mxGeometry x="231.5" y="3120" width="130" height="80" as="geometry" />
        </mxCell>
        <mxCell id="2_UDLm3RMH8MQwXrRxa8-32" style="edgeStyle=orthogonalEdgeStyle;rounded=0;orthogonalLoop=1;jettySize=auto;html=1;exitX=1;exitY=0.5;exitDx=0;exitDy=0;entryX=0;entryY=0.5;entryDx=0;entryDy=0;" edge="1" parent="1" source="2_UDLm3RMH8MQwXrRxa8-23" target="2_UDLm3RMH8MQwXrRxa8-34">
          <mxGeometry relative="1" as="geometry">
            <mxPoint x="1060" y="3270" as="targetPoint" />
          </mxGeometry>
        </mxCell>
        <mxCell id="2_UDLm3RMH8MQwXrRxa8-33" value="是" style="edgeLabel;html=1;align=center;verticalAlign=middle;resizable=0;points=[];" vertex="1" connectable="0" parent="2_UDLm3RMH8MQwXrRxa8-32">
          <mxGeometry x="0.0628" y="-3" relative="1" as="geometry">
            <mxPoint as="offset" />
          </mxGeometry>
        </mxCell>
        <mxCell id="2_UDLm3RMH8MQwXrRxa8-119" style="edgeStyle=orthogonalEdgeStyle;rounded=0;orthogonalLoop=1;jettySize=auto;html=1;exitX=0.5;exitY=1;exitDx=0;exitDy=0;entryX=0.5;entryY=0;entryDx=0;entryDy=0;" edge="1" parent="1" source="2_UDLm3RMH8MQwXrRxa8-23" target="2_UDLm3RMH8MQwXrRxa8-28">
          <mxGeometry relative="1" as="geometry" />
        </mxCell>
        <mxCell id="2_UDLm3RMH8MQwXrRxa8-120" value="否" style="edgeLabel;html=1;align=center;verticalAlign=middle;resizable=0;points=[];" vertex="1" connectable="0" parent="2_UDLm3RMH8MQwXrRxa8-119">
          <mxGeometry x="-0.2063" relative="1" as="geometry">
            <mxPoint as="offset" />
          </mxGeometry>
        </mxCell>
        <mxCell id="2_UDLm3RMH8MQwXrRxa8-23" value="还款日期是否在应还款日期之前" style="rhombus;whiteSpace=wrap;html=1;fillColor=#f8cecc;strokeColor=#b85450;" vertex="1" parent="1">
          <mxGeometry x="678.5" y="3230" width="130" height="80" as="geometry" />
        </mxCell>
        <mxCell id="2_UDLm3RMH8MQwXrRxa8-27" style="edgeStyle=orthogonalEdgeStyle;rounded=0;orthogonalLoop=1;jettySize=auto;html=1;exitX=1;exitY=0.5;exitDx=0;exitDy=0;" edge="1" parent="1" source="2_UDLm3RMH8MQwXrRxa8-25">
          <mxGeometry relative="1" as="geometry">
            <mxPoint x="670" y="3270" as="targetPoint" />
            <Array as="points">
              <mxPoint x="680" y="3270" />
              <mxPoint x="680" y="3270" />
            </Array>
          </mxGeometry>
        </mxCell>
        <mxCell id="2_UDLm3RMH8MQwXrRxa8-25" value="校验还款日期" style="rounded=0;whiteSpace=wrap;html=1;fillColor=#d80073;strokeColor=#A50040;fontColor=#ffffff;" vertex="1" parent="1">
          <mxGeometry x="510.5" y="3240" width="120" height="60" as="geometry" />
        </mxCell>
        <mxCell id="2_UDLm3RMH8MQwXrRxa8-121" style="edgeStyle=orthogonalEdgeStyle;rounded=0;orthogonalLoop=1;jettySize=auto;html=1;exitX=0.5;exitY=1;exitDx=0;exitDy=0;entryX=0.5;entryY=0;entryDx=0;entryDy=0;" edge="1" parent="1" source="2_UDLm3RMH8MQwXrRxa8-28" target="2_UDLm3RMH8MQwXrRxa8-108">
          <mxGeometry relative="1" as="geometry" />
        </mxCell>
        <mxCell id="2_UDLm3RMH8MQwXrRxa8-122" value="是" style="edgeLabel;html=1;align=center;verticalAlign=middle;resizable=0;points=[];" vertex="1" connectable="0" parent="2_UDLm3RMH8MQwXrRxa8-121">
          <mxGeometry x="0.1111" relative="1" as="geometry">
            <mxPoint y="1" as="offset" />
          </mxGeometry>
        </mxCell>
        <mxCell id="2_UDLm3RMH8MQwXrRxa8-28" value="是否为最后一期" style="rhombus;whiteSpace=wrap;html=1;fillColor=#f8cecc;strokeColor=#b85450;" vertex="1" parent="1">
          <mxGeometry x="680" y="3340" width="130" height="80" as="geometry" />
        </mxCell>
        <mxCell id="2_UDLm3RMH8MQwXrRxa8-34" value="不能编辑，提示还款日期错误" style="rounded=0;whiteSpace=wrap;html=1;strokeColor=#2D7600;fontFamily=Helvetica;fontSize=12;fontColor=#ffffff;fillColor=#60a917;" vertex="1" parent="1">
          <mxGeometry x="890" y="3240" width="120" height="60" as="geometry" />
        </mxCell>
        <mxCell id="2_UDLm3RMH8MQwXrRxa8-37" style="edgeStyle=orthogonalEdgeStyle;rounded=0;orthogonalLoop=1;jettySize=auto;html=1;" edge="1" parent="1" source="2_UDLm3RMH8MQwXrRxa8-36">
          <mxGeometry relative="1" as="geometry">
            <mxPoint x="720" y="3160" as="targetPoint" />
          </mxGeometry>
        </mxCell>
        <mxCell id="2_UDLm3RMH8MQwXrRxa8-38" value="否" style="edgeLabel;html=1;align=center;verticalAlign=middle;resizable=0;points=[];" vertex="1" connectable="0" parent="2_UDLm3RMH8MQwXrRxa8-37">
          <mxGeometry x="0.0495" y="-6" relative="1" as="geometry">
            <mxPoint as="offset" />
          </mxGeometry>
        </mxCell>
        <mxCell id="2_UDLm3RMH8MQwXrRxa8-40" style="edgeStyle=orthogonalEdgeStyle;rounded=0;orthogonalLoop=1;jettySize=auto;html=1;exitX=0.5;exitY=1;exitDx=0;exitDy=0;entryX=0.5;entryY=0;entryDx=0;entryDy=0;" edge="1" parent="1" source="2_UDLm3RMH8MQwXrRxa8-36" target="2_UDLm3RMH8MQwXrRxa8-25">
          <mxGeometry relative="1" as="geometry" />
        </mxCell>
        <mxCell id="2_UDLm3RMH8MQwXrRxa8-41" value="是" style="edgeLabel;html=1;align=center;verticalAlign=middle;resizable=0;points=[];" vertex="1" connectable="0" parent="2_UDLm3RMH8MQwXrRxa8-40">
          <mxGeometry x="0.2444" y="2" relative="1" as="geometry">
            <mxPoint as="offset" />
          </mxGeometry>
        </mxCell>
        <mxCell id="2_UDLm3RMH8MQwXrRxa8-36" value="前一期是否开始还款" style="rhombus;whiteSpace=wrap;html=1;fillColor=#f8cecc;strokeColor=#b85450;" vertex="1" parent="1">
          <mxGeometry x="510.5" y="3120" width="130" height="80" as="geometry" />
        </mxCell>
        <mxCell id="2_UDLm3RMH8MQwXrRxa8-39" value="不能编辑，提示上一期未开始还款" style="rounded=0;whiteSpace=wrap;html=1;strokeColor=#2D7600;fontFamily=Helvetica;fontSize=12;fontColor=#ffffff;fillColor=#60a917;" vertex="1" parent="1">
          <mxGeometry x="720" y="3130" width="120" height="60" as="geometry" />
        </mxCell>
        <mxCell id="2_UDLm3RMH8MQwXrRxa8-45" style="edgeStyle=orthogonalEdgeStyle;rounded=0;orthogonalLoop=1;jettySize=auto;html=1;exitX=1;exitY=0.5;exitDx=0;exitDy=0;" edge="1" parent="1" source="2_UDLm3RMH8MQwXrRxa8-44">
          <mxGeometry relative="1" as="geometry">
            <mxPoint x="1040.5" y="3460" as="targetPoint" />
          </mxGeometry>
        </mxCell>
        <mxCell id="2_UDLm3RMH8MQwXrRxa8-44" value="校验还款单证" style="rounded=0;whiteSpace=wrap;html=1;fontFamily=Helvetica;fontSize=12;fillColor=#d80073;strokeColor=#A50040;fontColor=#ffffff;" vertex="1" parent="1">
          <mxGeometry x="875.75" y="3430" width="120" height="60" as="geometry" />
        </mxCell>
        <mxCell id="2_UDLm3RMH8MQwXrRxa8-47" style="edgeStyle=orthogonalEdgeStyle;rounded=0;orthogonalLoop=1;jettySize=auto;html=1;exitX=1;exitY=0.5;exitDx=0;exitDy=0;" edge="1" parent="1" source="2_UDLm3RMH8MQwXrRxa8-46">
          <mxGeometry relative="1" as="geometry">
            <mxPoint x="1210.5" y="3460" as="targetPoint" />
          </mxGeometry>
        </mxCell>
        <mxCell id="2_UDLm3RMH8MQwXrRxa8-48" value="是" style="edgeLabel;html=1;align=center;verticalAlign=middle;resizable=0;points=[];" vertex="1" connectable="0" parent="2_UDLm3RMH8MQwXrRxa8-47">
          <mxGeometry x="-0.1606" y="-2" relative="1" as="geometry">
            <mxPoint as="offset" />
          </mxGeometry>
        </mxCell>
        <mxCell id="2_UDLm3RMH8MQwXrRxa8-50" style="edgeStyle=orthogonalEdgeStyle;rounded=0;orthogonalLoop=1;jettySize=auto;html=1;exitX=0.5;exitY=1;exitDx=0;exitDy=0;" edge="1" parent="1" source="2_UDLm3RMH8MQwXrRxa8-46">
          <mxGeometry relative="1" as="geometry">
            <mxPoint x="1105.5" y="3550" as="targetPoint" />
          </mxGeometry>
        </mxCell>
        <mxCell id="2_UDLm3RMH8MQwXrRxa8-51" value="否 " style="edgeLabel;html=1;align=center;verticalAlign=middle;resizable=0;points=[];" vertex="1" connectable="0" parent="2_UDLm3RMH8MQwXrRxa8-50">
          <mxGeometry x="0.0878" y="2" relative="1" as="geometry">
            <mxPoint as="offset" />
          </mxGeometry>
        </mxCell>
        <mxCell id="2_UDLm3RMH8MQwXrRxa8-46" value="还款单证是否为空" style="rhombus;whiteSpace=wrap;html=1;fillColor=#f8cecc;strokeColor=#b85450;" vertex="1" parent="1">
          <mxGeometry x="1040.5" y="3420" width="130" height="80" as="geometry" />
        </mxCell>
        <mxCell id="2_UDLm3RMH8MQwXrRxa8-49" value="不能编辑，提示还款单证为空" style="rounded=0;whiteSpace=wrap;html=1;strokeColor=#2D7600;fontFamily=Helvetica;fontSize=12;fontColor=#ffffff;fillColor=#60a917;" vertex="1" parent="1">
          <mxGeometry x="1210.5" y="3430" width="120" height="60" as="geometry" />
        </mxCell>
        <mxCell id="2_UDLm3RMH8MQwXrRxa8-53" style="edgeStyle=orthogonalEdgeStyle;rounded=0;orthogonalLoop=1;jettySize=auto;html=1;" edge="1" parent="1" source="2_UDLm3RMH8MQwXrRxa8-52">
          <mxGeometry relative="1" as="geometry">
            <mxPoint x="1240.5" y="3590" as="targetPoint" />
          </mxGeometry>
        </mxCell>
        <mxCell id="2_UDLm3RMH8MQwXrRxa8-54" value="是" style="edgeLabel;html=1;align=center;verticalAlign=middle;resizable=0;points=[];" vertex="1" connectable="0" parent="2_UDLm3RMH8MQwXrRxa8-53">
          <mxGeometry x="0.0644" y="1" relative="1" as="geometry">
            <mxPoint as="offset" />
          </mxGeometry>
        </mxCell>
        <mxCell id="2_UDLm3RMH8MQwXrRxa8-56" style="edgeStyle=orthogonalEdgeStyle;rounded=0;orthogonalLoop=1;jettySize=auto;html=1;" edge="1" parent="1" source="2_UDLm3RMH8MQwXrRxa8-52">
          <mxGeometry relative="1" as="geometry">
            <mxPoint x="1105.5" y="3680" as="targetPoint" />
          </mxGeometry>
        </mxCell>
        <mxCell id="2_UDLm3RMH8MQwXrRxa8-58" value="否" style="edgeLabel;html=1;align=center;verticalAlign=middle;resizable=0;points=[];" vertex="1" connectable="0" parent="2_UDLm3RMH8MQwXrRxa8-56">
          <mxGeometry x="-0.4456" y="5" relative="1" as="geometry">
            <mxPoint as="offset" />
          </mxGeometry>
        </mxCell>
        <mxCell id="2_UDLm3RMH8MQwXrRxa8-52" value="还款单证是否超过五张" style="rhombus;whiteSpace=wrap;html=1;fillColor=#f8cecc;strokeColor=#b85450;" vertex="1" parent="1">
          <mxGeometry x="1040.5" y="3550" width="130" height="80" as="geometry" />
        </mxCell>
        <mxCell id="2_UDLm3RMH8MQwXrRxa8-55" value="不能编辑，提示超出最大还款单证数" style="rounded=0;whiteSpace=wrap;html=1;strokeColor=#2D7600;fontFamily=Helvetica;fontSize=12;fontColor=#ffffff;fillColor=#60a917;" vertex="1" parent="1">
          <mxGeometry x="1240.5" y="3560" width="120" height="60" as="geometry" />
        </mxCell>
        <mxCell id="2_UDLm3RMH8MQwXrRxa8-61" style="edgeStyle=orthogonalEdgeStyle;rounded=0;orthogonalLoop=1;jettySize=auto;html=1;entryX=0.5;entryY=0;entryDx=0;entryDy=0;" edge="1" parent="1" source="2_UDLm3RMH8MQwXrRxa8-59" target="2_UDLm3RMH8MQwXrRxa8-60">
          <mxGeometry relative="1" as="geometry" />
        </mxCell>
        <mxCell id="2_UDLm3RMH8MQwXrRxa8-59" value="校验还款金额" style="rounded=0;whiteSpace=wrap;html=1;fontFamily=Helvetica;fontSize=12;fillColor=#d80073;strokeColor=#A50040;fontColor=#ffffff;" vertex="1" parent="1">
          <mxGeometry x="1045.5" y="3680" width="120" height="60" as="geometry" />
        </mxCell>
        <mxCell id="2_UDLm3RMH8MQwXrRxa8-62" style="edgeStyle=orthogonalEdgeStyle;rounded=0;orthogonalLoop=1;jettySize=auto;html=1;" edge="1" parent="1" source="2_UDLm3RMH8MQwXrRxa8-60">
          <mxGeometry relative="1" as="geometry">
            <mxPoint x="1230.5" y="3830" as="targetPoint" />
          </mxGeometry>
        </mxCell>
        <mxCell id="2_UDLm3RMH8MQwXrRxa8-63" value="是" style="edgeLabel;html=1;align=center;verticalAlign=middle;resizable=0;points=[];" vertex="1" connectable="0" parent="2_UDLm3RMH8MQwXrRxa8-62">
          <mxGeometry x="-0.2728" y="-6" relative="1" as="geometry">
            <mxPoint as="offset" />
          </mxGeometry>
        </mxCell>
        <mxCell id="2_UDLm3RMH8MQwXrRxa8-65" style="edgeStyle=orthogonalEdgeStyle;rounded=0;orthogonalLoop=1;jettySize=auto;html=1;exitX=0.5;exitY=1;exitDx=0;exitDy=0;" edge="1" parent="1" source="2_UDLm3RMH8MQwXrRxa8-60">
          <mxGeometry relative="1" as="geometry">
            <mxPoint x="1105.5" y="3920" as="targetPoint" />
          </mxGeometry>
        </mxCell>
        <mxCell id="2_UDLm3RMH8MQwXrRxa8-66" value="否" style="edgeLabel;html=1;align=center;verticalAlign=middle;resizable=0;points=[];" vertex="1" connectable="0" parent="2_UDLm3RMH8MQwXrRxa8-65">
          <mxGeometry x="0.0098" y="5" relative="1" as="geometry">
            <mxPoint x="5" y="3" as="offset" />
          </mxGeometry>
        </mxCell>
        <mxCell id="2_UDLm3RMH8MQwXrRxa8-60" value="是否超过还款总额" style="rhombus;whiteSpace=wrap;html=1;fillColor=#f8cecc;strokeColor=#b85450;" vertex="1" parent="1">
          <mxGeometry x="1040.5" y="3790" width="130" height="80" as="geometry" />
        </mxCell>
        <mxCell id="2_UDLm3RMH8MQwXrRxa8-64" value="不能编辑，提示超出还款总额" style="rounded=0;whiteSpace=wrap;html=1;strokeColor=#2D7600;fontFamily=Helvetica;fontSize=12;fontColor=#ffffff;fillColor=#60a917;" vertex="1" parent="1">
          <mxGeometry x="1230.5" y="3800" width="120" height="60" as="geometry" />
        </mxCell>
        <mxCell id="2_UDLm3RMH8MQwXrRxa8-68" style="edgeStyle=orthogonalEdgeStyle;rounded=0;orthogonalLoop=1;jettySize=auto;html=1;exitX=0.5;exitY=1;exitDx=0;exitDy=0;" edge="1" parent="1" source="2_UDLm3RMH8MQwXrRxa8-67">
          <mxGeometry relative="1" as="geometry">
            <mxPoint x="1105.5" y="4020" as="targetPoint" />
          </mxGeometry>
        </mxCell>
        <mxCell id="2_UDLm3RMH8MQwXrRxa8-67" value="设置还款状态" style="rounded=0;whiteSpace=wrap;html=1;fontFamily=Helvetica;fontSize=12;fillColor=#d80073;strokeColor=#A50040;fontColor=#ffffff;" vertex="1" parent="1">
          <mxGeometry x="1045.5" y="3920" width="120" height="60" as="geometry" />
        </mxCell>
        <mxCell id="2_UDLm3RMH8MQwXrRxa8-70" style="edgeStyle=orthogonalEdgeStyle;rounded=0;orthogonalLoop=1;jettySize=auto;html=1;exitX=1;exitY=0.5;exitDx=0;exitDy=0;" edge="1" parent="1" source="2_UDLm3RMH8MQwXrRxa8-69">
          <mxGeometry relative="1" as="geometry">
            <mxPoint x="1230.5" y="4060" as="targetPoint" />
          </mxGeometry>
        </mxCell>
        <mxCell id="2_UDLm3RMH8MQwXrRxa8-71" value="是" style="edgeLabel;html=1;align=center;verticalAlign=middle;resizable=0;points=[];" vertex="1" connectable="0" parent="2_UDLm3RMH8MQwXrRxa8-70">
          <mxGeometry x="-0.0744" y="1" relative="1" as="geometry">
            <mxPoint as="offset" />
          </mxGeometry>
        </mxCell>
        <mxCell id="2_UDLm3RMH8MQwXrRxa8-84" style="edgeStyle=orthogonalEdgeStyle;rounded=0;orthogonalLoop=1;jettySize=auto;html=1;exitX=0.5;exitY=1;exitDx=0;exitDy=0;" edge="1" parent="1" source="2_UDLm3RMH8MQwXrRxa8-69">
          <mxGeometry relative="1" as="geometry">
            <mxPoint x="1105.5" y="4160" as="targetPoint" />
          </mxGeometry>
        </mxCell>
        <mxCell id="2_UDLm3RMH8MQwXrRxa8-85" value="否" style="edgeLabel;html=1;align=center;verticalAlign=middle;resizable=0;points=[];" vertex="1" connectable="0" parent="2_UDLm3RMH8MQwXrRxa8-84">
          <mxGeometry x="0.0356" relative="1" as="geometry">
            <mxPoint as="offset" />
          </mxGeometry>
        </mxCell>
        <mxCell id="2_UDLm3RMH8MQwXrRxa8-69" value="是否为第一期" style="rhombus;whiteSpace=wrap;html=1;fillColor=#f8cecc;strokeColor=#b85450;" vertex="1" parent="1">
          <mxGeometry x="1040.5" y="4020" width="130" height="80" as="geometry" />
        </mxCell>
        <mxCell id="2_UDLm3RMH8MQwXrRxa8-72" value="还款成功" style="rounded=0;whiteSpace=wrap;html=1;strokeColor=#2D7600;fontFamily=Helvetica;fontSize=19;fontColor=#FF3333;fillColor=#60a917;" vertex="1" parent="1">
          <mxGeometry x="1423" y="4300" width="135" height="60" as="geometry" />
        </mxCell>
        <mxCell id="2_UDLm3RMH8MQwXrRxa8-74" style="edgeStyle=orthogonalEdgeStyle;rounded=0;orthogonalLoop=1;jettySize=auto;html=1;exitX=1;exitY=0.5;exitDx=0;exitDy=0;" edge="1" parent="1" source="2_UDLm3RMH8MQwXrRxa8-73">
          <mxGeometry relative="1" as="geometry">
            <mxPoint x="1430.5" y="4060" as="targetPoint" />
          </mxGeometry>
        </mxCell>
        <mxCell id="2_UDLm3RMH8MQwXrRxa8-75" value="是" style="edgeLabel;html=1;align=center;verticalAlign=middle;resizable=0;points=[];" vertex="1" connectable="0" parent="2_UDLm3RMH8MQwXrRxa8-74">
          <mxGeometry x="0.1385" y="-4" relative="1" as="geometry">
            <mxPoint as="offset" />
          </mxGeometry>
        </mxCell>
        <mxCell id="2_UDLm3RMH8MQwXrRxa8-80" style="edgeStyle=orthogonalEdgeStyle;rounded=0;orthogonalLoop=1;jettySize=auto;html=1;exitX=0.5;exitY=1;exitDx=0;exitDy=0;" edge="1" parent="1" source="2_UDLm3RMH8MQwXrRxa8-73">
          <mxGeometry relative="1" as="geometry">
            <mxPoint x="1300.5" y="4190" as="targetPoint" />
          </mxGeometry>
        </mxCell>
        <mxCell id="2_UDLm3RMH8MQwXrRxa8-81" value="否" style="edgeLabel;html=1;align=center;verticalAlign=middle;resizable=0;points=[];" vertex="1" connectable="0" parent="2_UDLm3RMH8MQwXrRxa8-80">
          <mxGeometry x="-0.0277" y="-2" relative="1" as="geometry">
            <mxPoint as="offset" />
          </mxGeometry>
        </mxCell>
        <mxCell id="2_UDLm3RMH8MQwXrRxa8-73" value="还款金额 = 应还总额" style="rhombus;whiteSpace=wrap;html=1;fillColor=#f8cecc;strokeColor=#b85450;" vertex="1" parent="1">
          <mxGeometry x="1230.5" y="4020" width="140" height="80" as="geometry" />
        </mxCell>
        <mxCell id="2_UDLm3RMH8MQwXrRxa8-77" style="edgeStyle=orthogonalEdgeStyle;rounded=0;orthogonalLoop=1;jettySize=auto;html=1;exitX=0.5;exitY=1;exitDx=0;exitDy=0;" edge="1" parent="1" source="2_UDLm3RMH8MQwXrRxa8-76">
          <mxGeometry relative="1" as="geometry">
            <mxPoint x="1490.5" y="4170" as="targetPoint" />
          </mxGeometry>
        </mxCell>
        <mxCell id="2_UDLm3RMH8MQwXrRxa8-76" value="&lt;div&gt;设置状态为已结清&lt;/div&gt;&lt;div&gt;设置还款金额&lt;/div&gt;&lt;div&gt;设置还款日期&lt;br&gt;&lt;/div&gt;&lt;div&gt;修改还款单&lt;br&gt; &lt;/div&gt;" style="rounded=0;whiteSpace=wrap;html=1;align=left;" vertex="1" parent="1">
          <mxGeometry x="1430.5" y="4030" width="120" height="60" as="geometry" />
        </mxCell>
        <mxCell id="2_UDLm3RMH8MQwXrRxa8-79" style="edgeStyle=orthogonalEdgeStyle;rounded=0;orthogonalLoop=1;jettySize=auto;html=1;" edge="1" parent="1" source="2_UDLm3RMH8MQwXrRxa8-78">
          <mxGeometry relative="1" as="geometry">
            <mxPoint x="1490.5" y="4300" as="targetPoint" />
          </mxGeometry>
        </mxCell>
        <mxCell id="2_UDLm3RMH8MQwXrRxa8-78" value="&lt;div&gt;返还授信额度&lt;/div&gt;&lt;div&gt;返还额度值: 应还本金&lt;br&gt;&lt;/div&gt;" style="rounded=0;whiteSpace=wrap;html=1;align=left;" vertex="1" parent="1">
          <mxGeometry x="1430.5" y="4170" width="120" height="60" as="geometry" />
        </mxCell>
        <mxCell id="2_UDLm3RMH8MQwXrRxa8-83" style="edgeStyle=orthogonalEdgeStyle;rounded=0;orthogonalLoop=1;jettySize=auto;html=1;entryX=0;entryY=0.5;entryDx=0;entryDy=0;" edge="1" parent="1" source="2_UDLm3RMH8MQwXrRxa8-82" target="2_UDLm3RMH8MQwXrRxa8-72">
          <mxGeometry relative="1" as="geometry" />
        </mxCell>
        <mxCell id="2_UDLm3RMH8MQwXrRxa8-82" value="&lt;div&gt;设置状态为部分还款&lt;/div&gt;&lt;div&gt;设置还款金额&lt;/div&gt;&lt;div&gt;设置还款日期&lt;br&gt;&lt;/div&gt;&lt;div&gt;修改还款单&lt;br&gt; &lt;/div&gt;" style="rounded=0;whiteSpace=wrap;html=1;align=left;" vertex="1" parent="1">
          <mxGeometry x="1251.5" y="4190" width="120" height="60" as="geometry" />
        </mxCell>
        <mxCell id="2_UDLm3RMH8MQwXrRxa8-86" value="上一期是否为结清或已转结" style="rhombus;whiteSpace=wrap;html=1;fillColor=#f8cecc;strokeColor=#b85450;" vertex="1" parent="1">
          <mxGeometry x="1040.5" y="4162" width="130" height="60" as="geometry" />
        </mxCell>
        <mxCell id="2_UDLm3RMH8MQwXrRxa8-92" style="edgeStyle=orthogonalEdgeStyle;rounded=0;orthogonalLoop=1;jettySize=auto;html=1;exitX=1;exitY=0.5;exitDx=0;exitDy=0;entryX=0.057;entryY=0.55;entryDx=0;entryDy=0;entryPerimeter=0;" edge="1" parent="1" source="2_UDLm3RMH8MQwXrRxa8-86" target="2_UDLm3RMH8MQwXrRxa8-73">
          <mxGeometry relative="1" as="geometry" />
        </mxCell>
        <mxCell id="2_UDLm3RMH8MQwXrRxa8-93" value="是" style="edgeLabel;html=1;align=center;verticalAlign=middle;resizable=0;points=[];" vertex="1" connectable="0" parent="2_UDLm3RMH8MQwXrRxa8-92">
          <mxGeometry x="0.1875" y="2" relative="1" as="geometry">
            <mxPoint as="offset" />
          </mxGeometry>
        </mxCell>
        <mxCell id="2_UDLm3RMH8MQwXrRxa8-94" style="edgeStyle=orthogonalEdgeStyle;rounded=0;orthogonalLoop=1;jettySize=auto;html=1;exitX=0.5;exitY=1;exitDx=0;exitDy=0;entryX=0;entryY=0.867;entryDx=0;entryDy=0;entryPerimeter=0;" edge="1" parent="1" source="2_UDLm3RMH8MQwXrRxa8-86" target="2_UDLm3RMH8MQwXrRxa8-82">
          <mxGeometry relative="1" as="geometry" />
        </mxCell>
        <mxCell id="2_UDLm3RMH8MQwXrRxa8-95" value="否" style="edgeLabel;html=1;align=center;verticalAlign=middle;resizable=0;points=[];" vertex="1" connectable="0" parent="2_UDLm3RMH8MQwXrRxa8-94">
          <mxGeometry x="0.2169" y="-3" relative="1" as="geometry">
            <mxPoint as="offset" />
          </mxGeometry>
        </mxCell>
        <mxCell id="2_UDLm3RMH8MQwXrRxa8-102" style="edgeStyle=orthogonalEdgeStyle;rounded=0;orthogonalLoop=1;jettySize=auto;html=1;exitX=0.5;exitY=1;exitDx=0;exitDy=0;" edge="1" parent="1" source="2_UDLm3RMH8MQwXrRxa8-97" target="2_UDLm3RMH8MQwXrRxa8-101">
          <mxGeometry relative="1" as="geometry" />
        </mxCell>
        <mxCell id="2_UDLm3RMH8MQwXrRxa8-103" value="否" style="edgeLabel;html=1;align=center;verticalAlign=middle;resizable=0;points=[];" vertex="1" connectable="0" parent="2_UDLm3RMH8MQwXrRxa8-102">
          <mxGeometry x="-0.225" y="-5" relative="1" as="geometry">
            <mxPoint as="offset" />
          </mxGeometry>
        </mxCell>
        <mxCell id="2_UDLm3RMH8MQwXrRxa8-125" style="edgeStyle=orthogonalEdgeStyle;rounded=0;orthogonalLoop=1;jettySize=auto;html=1;exitX=1;exitY=0.5;exitDx=0;exitDy=0;entryX=0;entryY=0.5;entryDx=0;entryDy=0;" edge="1" parent="1" source="2_UDLm3RMH8MQwXrRxa8-97" target="2_UDLm3RMH8MQwXrRxa8-25">
          <mxGeometry relative="1" as="geometry" />
        </mxCell>
        <mxCell id="2_UDLm3RMH8MQwXrRxa8-126" value="是" style="edgeLabel;html=1;align=center;verticalAlign=middle;resizable=0;points=[];" vertex="1" connectable="0" parent="2_UDLm3RMH8MQwXrRxa8-125">
          <mxGeometry x="-0.0611" y="-3" relative="1" as="geometry">
            <mxPoint y="1" as="offset" />
          </mxGeometry>
        </mxCell>
        <mxCell id="2_UDLm3RMH8MQwXrRxa8-97" value="是否为部分还款" style="rhombus;whiteSpace=wrap;html=1;fillColor=#f8cecc;strokeColor=#b85450;" vertex="1" parent="1">
          <mxGeometry x="231.5" y="3310" width="130" height="80" as="geometry" />
        </mxCell>
        <mxCell id="2_UDLm3RMH8MQwXrRxa8-127" style="edgeStyle=orthogonalEdgeStyle;rounded=0;orthogonalLoop=1;jettySize=auto;html=1;exitX=1;exitY=0.5;exitDx=0;exitDy=0;" edge="1" parent="1" source="2_UDLm3RMH8MQwXrRxa8-101" target="2_UDLm3RMH8MQwXrRxa8-25">
          <mxGeometry relative="1" as="geometry">
            <Array as="points">
              <mxPoint x="362" y="3400" />
              <mxPoint x="560" y="3400" />
            </Array>
          </mxGeometry>
        </mxCell>
        <mxCell id="2_UDLm3RMH8MQwXrRxa8-128" value="是" style="edgeLabel;html=1;align=center;verticalAlign=middle;resizable=0;points=[];" vertex="1" connectable="0" parent="2_UDLm3RMH8MQwXrRxa8-127">
          <mxGeometry x="0.1383" y="-5" relative="1" as="geometry">
            <mxPoint x="1" as="offset" />
          </mxGeometry>
        </mxCell>
        <mxCell id="2_UDLm3RMH8MQwXrRxa8-101" value="是否为已逾期" style="rhombus;whiteSpace=wrap;html=1;fillColor=#f8cecc;strokeColor=#b85450;" vertex="1" parent="1">
          <mxGeometry x="231.5" y="3470" width="130" height="80" as="geometry" />
        </mxCell>
        <mxCell id="2_UDLm3RMH8MQwXrRxa8-111" style="edgeStyle=orthogonalEdgeStyle;rounded=0;orthogonalLoop=1;jettySize=auto;html=1;exitX=0;exitY=0.5;exitDx=0;exitDy=0;entryX=1;entryY=0.5;entryDx=0;entryDy=0;" edge="1" parent="1" source="2_UDLm3RMH8MQwXrRxa8-108" target="2_UDLm3RMH8MQwXrRxa8-113">
          <mxGeometry relative="1" as="geometry">
            <mxPoint x="630.5" y="3470" as="targetPoint" />
          </mxGeometry>
        </mxCell>
        <mxCell id="2_UDLm3RMH8MQwXrRxa8-112" value="是" style="edgeLabel;html=1;align=center;verticalAlign=middle;resizable=0;points=[];" vertex="1" connectable="0" parent="2_UDLm3RMH8MQwXrRxa8-111">
          <mxGeometry x="-0.2872" y="-1" relative="1" as="geometry">
            <mxPoint as="offset" />
          </mxGeometry>
        </mxCell>
        <mxCell id="2_UDLm3RMH8MQwXrRxa8-114" style="edgeStyle=orthogonalEdgeStyle;rounded=0;orthogonalLoop=1;jettySize=auto;html=1;exitX=0.5;exitY=1;exitDx=0;exitDy=0;entryX=0.5;entryY=1;entryDx=0;entryDy=0;" edge="1" parent="1" source="2_UDLm3RMH8MQwXrRxa8-108" target="2_UDLm3RMH8MQwXrRxa8-44">
          <mxGeometry relative="1" as="geometry">
            <mxPoint x="745.5" y="3580" as="targetPoint" />
          </mxGeometry>
        </mxCell>
        <mxCell id="2_UDLm3RMH8MQwXrRxa8-115" value="否" style="edgeLabel;html=1;align=center;verticalAlign=middle;resizable=0;points=[];" vertex="1" connectable="0" parent="2_UDLm3RMH8MQwXrRxa8-114">
          <mxGeometry x="-0.2057" y="3" relative="1" as="geometry">
            <mxPoint as="offset" />
          </mxGeometry>
        </mxCell>
        <mxCell id="2_UDLm3RMH8MQwXrRxa8-108" value="还款日期是否超过下一期的应还款日期" style="rhombus;whiteSpace=wrap;html=1;fillColor=#f8cecc;strokeColor=#b85450;" vertex="1" parent="1">
          <mxGeometry x="678.5" y="3450" width="130" height="80" as="geometry" />
        </mxCell>
        <mxCell id="2_UDLm3RMH8MQwXrRxa8-113" value="不能编辑，提示还款日期错误" style="rounded=0;whiteSpace=wrap;html=1;strokeColor=#2D7600;fontFamily=Helvetica;fontSize=12;fontColor=#ffffff;fillColor=#60a917;" vertex="1" parent="1">
          <mxGeometry x="510" y="3460" width="120" height="60" as="geometry" />
        </mxCell>
        <mxCell id="2_UDLm3RMH8MQwXrRxa8-123" style="edgeStyle=orthogonalEdgeStyle;rounded=0;orthogonalLoop=1;jettySize=auto;html=1;exitX=1;exitY=0.5;exitDx=0;exitDy=0;entryX=0.571;entryY=-0.017;entryDx=0;entryDy=0;entryPerimeter=0;" edge="1" parent="1" source="2_UDLm3RMH8MQwXrRxa8-28" target="2_UDLm3RMH8MQwXrRxa8-44">
          <mxGeometry relative="1" as="geometry" />
        </mxCell>
        <mxCell id="2_UDLm3RMH8MQwXrRxa8-124" value="否" style="edgeLabel;html=1;align=center;verticalAlign=middle;resizable=0;points=[];" vertex="1" connectable="0" parent="2_UDLm3RMH8MQwXrRxa8-123">
          <mxGeometry x="-0.2434" y="-5" relative="1" as="geometry">
            <mxPoint as="offset" />
          </mxGeometry>
        </mxCell>
      </root>
    </mxGraphModel>
  </diagram>
</mxfile>
